<svg width="13" height="13" viewBox="0 0 13 13" fill="none" xmlns="http://www.w3.org/2000/svg">
<g clip-path="url(#clip0_576_1241)">
<path d="M12.9199 0.987187C12.8185 0.742838 12.6243 0.548662 12.3799 0.447186C12.2597 0.395946 12.1306 0.368767 11.9999 0.367188H1.99994C1.73472 0.367188 1.48037 0.472545 1.29283 0.660081C1.1053 0.847617 0.999939 1.10197 0.999939 1.36719C0.999939 1.6324 1.1053 1.88676 1.29283 2.07429C1.48037 2.26183 1.73472 2.36719 1.99994 2.36719H9.58994L1.28994 10.6572C1.19621 10.7502 1.12182 10.8608 1.07105 10.9826C1.02028 11.1045 0.994141 11.2352 0.994141 11.3672C0.994141 11.4992 1.02028 11.6299 1.07105 11.7518C1.12182 11.8736 1.19621 11.9842 1.28994 12.0772C1.3829 12.1709 1.4935 12.2453 1.61536 12.2961C1.73722 12.3468 1.86793 12.373 1.99994 12.373C2.13195 12.373 2.26266 12.3468 2.38452 12.2961C2.50638 12.2453 2.61698 12.1709 2.70994 12.0772L10.9999 3.77719V11.3672C10.9999 11.6324 11.1053 11.8868 11.2928 12.0743C11.4804 12.2618 11.7347 12.3672 11.9999 12.3672C12.2652 12.3672 12.5195 12.2618 12.707 12.0743C12.8946 11.8868 12.9999 11.6324 12.9999 11.3672V1.36719C12.9984 1.23651 12.9712 1.10741 12.9199 0.987187Z" fill="#424F65"/>
</g>
<defs>
<clipPath id="clip0_576_1241">
<rect width="13" height="13" fill="white"/>
</clipPath>
</defs>
</svg>
