<svg width="25" height="24" viewBox="0 0 25 24" fill="none" xmlns="http://www.w3.org/2000/svg">
<g clip-path="url(#clip0_576_659)">
<path d="M14 2.00003C14 2.44403 13.807 2.84303 13.5 3.11803V5.00003H18.5C19.2956 5.00003 20.0587 5.3161 20.6213 5.87871C21.1839 6.44132 21.5 7.20438 21.5 8.00003V18C21.5 18.7957 21.1839 19.5587 20.6213 20.1214C20.0587 20.684 19.2956 21 18.5 21H6.5C5.70435 21 4.94129 20.684 4.37868 20.1214C3.81607 19.5587 3.5 18.7957 3.5 18V8.00003C3.5 7.20438 3.81607 6.44132 4.37868 5.87871C4.94129 5.3161 5.70435 5.00003 6.5 5.00003H11.5V3.11803C11.3135 2.95123 11.1717 2.74042 11.0875 2.5048C11.0033 2.26918 10.9794 2.01625 11.0179 1.76902C11.0564 1.52179 11.1562 1.28813 11.3081 1.08931C11.46 0.890493 11.6592 0.732833 11.8876 0.630687C12.1161 0.528541 12.3664 0.485156 12.6159 0.504481C12.8653 0.523806 13.106 0.605228 13.3159 0.741333C13.5259 0.877437 13.6985 1.0639 13.8179 1.28374C13.9374 1.50359 14 1.74982 14 2.00003ZM6.5 7.00003C6.23478 7.00003 5.98043 7.10539 5.79289 7.29293C5.60536 7.48046 5.5 7.73482 5.5 8.00003V18C5.5 18.2653 5.60536 18.5196 5.79289 18.7071C5.98043 18.8947 6.23478 19 6.5 19H18.5C18.7652 19 19.0196 18.8947 19.2071 18.7071C19.3946 18.5196 19.5 18.2653 19.5 18V8.00003C19.5 7.73482 19.3946 7.48046 19.2071 7.29293C19.0196 7.10539 18.7652 7.00003 18.5 7.00003H6.5ZM2.5 10H0.5V16H2.5V10ZM22.5 10H24.5V16H22.5V10ZM9.5 14.5C9.89782 14.5 10.2794 14.342 10.5607 14.0607C10.842 13.7794 11 13.3979 11 13C11 12.6022 10.842 12.2207 10.5607 11.9394C10.2794 11.6581 9.89782 11.5 9.5 11.5C9.10218 11.5 8.72064 11.6581 8.43934 11.9394C8.15804 12.2207 8 12.6022 8 13C8 13.3979 8.15804 13.7794 8.43934 14.0607C8.72064 14.342 9.10218 14.5 9.5 14.5ZM15.5 14.5C15.8978 14.5 16.2794 14.342 16.5607 14.0607C16.842 13.7794 17 13.3979 17 13C17 12.6022 16.842 12.2207 16.5607 11.9394C16.2794 11.6581 15.8978 11.5 15.5 11.5C15.1022 11.5 14.7206 11.6581 14.4393 11.9394C14.158 12.2207 14 12.6022 14 13C14 13.3979 14.158 13.7794 14.4393 14.0607C14.7206 14.342 15.1022 14.5 15.5 14.5Z" fill="#FD6925"/>
</g>
<defs>
<clipPath id="clip0_576_659">
<rect width="24" height="24" fill="white" transform="translate(0.5)"/>
</clipPath>
</defs>
</svg>
