<svg width="25" height="24" viewBox="0 0 25 24" fill="none" xmlns="http://www.w3.org/2000/svg">
<path fill-rule="evenodd" clip-rule="evenodd" d="M8.22857 1.48571C8.22857 1.22429 8.12472 0.973566 7.93986 0.788709C7.755 0.603852 7.50428 0.5 7.24286 0.5C6.98143 0.5 6.73071 0.603852 6.54585 0.788709C6.36099 0.973566 6.25714 1.22429 6.25714 1.48571V3.12857H5.92857C5.31857 3.12857 4.73356 3.37089 4.30223 3.80223C3.87089 4.23356 3.62857 4.81857 3.62857 5.42857V5.75714H1.98571C1.72429 5.75714 1.47357 5.86099 1.28871 6.04585C1.10385 6.23071 1 6.48143 1 6.74286C1 7.00428 1.10385 7.255 1.28871 7.43986C1.47357 7.62472 1.72429 7.72857 1.98571 7.72857H3.62857V11.0143H1.98571C1.72429 11.0143 1.47357 11.1181 1.28871 11.303C1.10385 11.4879 1 11.7386 1 12C1 12.2614 1.10385 12.5121 1.28871 12.697C1.47357 12.8819 1.72429 12.9857 1.98571 12.9857H3.62857V16.2714H1.98571C1.72429 16.2714 1.47357 16.3753 1.28871 16.5601C1.10385 16.745 1 16.9957 1 17.2571C1 17.5186 1.10385 17.7693 1.28871 17.9541C1.47357 18.139 1.72429 18.2429 1.98571 18.2429H3.62857V18.5714C3.62857 19.841 4.65897 20.8714 5.92857 20.8714H6.25714V22.5143C6.25714 22.7757 6.36099 23.0264 6.54585 23.2113C6.73071 23.3962 6.98143 23.5 7.24286 23.5C7.50428 23.5 7.755 23.3962 7.93986 23.2113C8.12472 23.0264 8.22857 22.7757 8.22857 22.5143V20.8714H11.5143V22.5143C11.5143 22.7757 11.6181 23.0264 11.803 23.2113C11.9879 23.3962 12.2386 23.5 12.5 23.5C12.7614 23.5 13.0121 23.3962 13.197 23.2113C13.3819 23.0264 13.4857 22.7757 13.4857 22.5143V20.8714H16.7714V22.5143C16.7714 22.7757 16.8753 23.0264 17.0601 23.2113C17.245 23.3962 17.4957 23.5 17.7571 23.5C18.0186 23.5 18.2693 23.3962 18.4541 23.2113C18.639 23.0264 18.7429 22.7757 18.7429 22.5143V20.8714H19.0714C19.6814 20.8714 20.2664 20.6291 20.6978 20.1978C21.1291 19.7664 21.3714 19.1814 21.3714 18.5714V18.2429H23.0143C23.2757 18.2429 23.5264 18.139 23.7113 17.9541C23.8962 17.7693 24 17.5186 24 17.2571C24 16.9957 23.8962 16.745 23.7113 16.5601C23.5264 16.3753 23.2757 16.2714 23.0143 16.2714H21.3714V12.9857H23.0143C23.2757 12.9857 23.5264 12.8819 23.7113 12.697C23.8962 12.5121 24 12.2614 24 12C24 11.7386 23.8962 11.4879 23.7113 11.303C23.5264 11.1181 23.2757 11.0143 23.0143 11.0143H21.3714V7.72857H23.0143C23.2757 7.72857 23.5264 7.62472 23.7113 7.43986C23.8962 7.255 24 7.00428 24 6.74286C24 6.48143 23.8962 6.23071 23.7113 6.04585C23.5264 5.86099 23.2757 5.75714 23.0143 5.75714H21.3714V5.42857C21.3714 4.81857 21.1291 4.23356 20.6978 3.80223C20.2664 3.37089 19.6814 3.12857 19.0714 3.12857H18.7429V1.48571C18.7429 1.22429 18.639 0.973566 18.4541 0.788709C18.2693 0.603852 18.0186 0.5 17.7571 0.5C17.4957 0.5 17.245 0.603852 17.0601 0.788709C16.8753 0.973566 16.7714 1.22429 16.7714 1.48571V3.12857H13.4857V1.48571C13.4857 1.22429 13.3819 0.973566 13.197 0.788709C13.0121 0.603852 12.7614 0.5 12.5 0.5C12.2386 0.5 11.9879 0.603852 11.803 0.788709C11.6181 0.973566 11.5143 1.22429 11.5143 1.48571V3.12857H8.22857V1.48571ZM5.6 5.42857C5.6 5.34143 5.63462 5.25786 5.69624 5.19624C5.75786 5.13462 5.84143 5.1 5.92857 5.1H19.0714C19.1586 5.1 19.2421 5.13462 19.3038 5.19624C19.3654 5.25786 19.4 5.34143 19.4 5.42857V18.5714C19.4 18.6586 19.3654 18.7421 19.3038 18.8038C19.2421 18.8654 19.1586 18.9 19.0714 18.9H5.92857C5.84143 18.9 5.75786 18.8654 5.69624 18.8038C5.63462 18.7421 5.6 18.6586 5.6 18.5714V5.42857ZM12.2358 15.6182L11.8744 14.6036H9.21034L8.84891 15.6182C8.76108 15.8645 8.579 16.0658 8.34276 16.1778C8.10651 16.2898 7.83544 16.3034 7.58917 16.2156C7.34291 16.1277 7.14162 15.9457 7.0296 15.7094C6.91758 15.4732 6.90399 15.2021 6.99183 14.9558L9.22611 8.68669L9.23006 8.67486L9.23531 8.66171C9.43509 8.14651 9.91349 7.72726 10.5417 7.72726C11.1713 7.72726 11.6483 8.14651 11.8494 8.66303L11.8534 8.67486L11.8586 8.688L14.0929 14.9571C14.1765 15.2024 14.1601 15.4707 14.0473 15.7039C13.9346 15.9372 13.7345 16.1167 13.4904 16.2036C13.2463 16.2905 12.9779 16.2778 12.7431 16.1682C12.5083 16.0587 12.3261 15.8611 12.2358 15.6182ZM10.5417 10.8671L11.1713 12.6322H9.91217L10.5417 10.8671ZM15.4571 8.71166C15.4571 8.45023 15.561 8.19951 15.7459 8.01465C15.9307 7.82979 16.1814 7.72594 16.4429 7.72594C16.7043 7.72594 16.955 7.82979 17.1399 8.01465C17.3247 8.19951 17.4286 8.45023 17.4286 8.71166V15.287C17.4286 15.5485 17.3247 15.7992 17.1399 15.984C16.955 16.1689 16.7043 16.2727 16.4429 16.2727C16.1814 16.2727 15.9307 16.1689 15.7459 15.984C15.561 15.7992 15.4571 15.5485 15.4571 15.287V8.71166Z" fill="#424F65"/>
</svg>
