<svg width="48" height="48" viewBox="0 0 48 48" fill="none" xmlns="http://www.w3.org/2000/svg">
<path fill-rule="evenodd" clip-rule="evenodd" d="M44 24.2521C42.0298 22.8348 39.6124 22 37 22C30.3726 22 25 27.3726 25 34C25 36.1857 25.5844 38.235 26.6054 40H7C5.34315 40 4 38.6569 4 37V11C4 9.34315 5.34315 8 7 8H41C42.6569 8 44 9.34315 44 11V24.2521Z" fill="#ACDCFA"/>
<path d="M4 11C4 9.34315 5.34315 8 7 8H41C42.6569 8 44 9.34315 44 11V20H4V11Z" fill="#6CACE4"/>
<path d="M8 14C8 12.8954 8.89543 12 10 12C11.1046 12 12 12.8954 12 14C12 15.1046 11.1046 16 10 16C8.89543 16 8 15.1046 8 14Z" fill="#EFF3F8"/>
<path d="M14 14C14 12.8954 14.8954 12 16 12C17.1046 12 18 12.8954 18 14C18 15.1046 17.1046 16 16 16C14.8954 16 14 15.1046 14 14Z" fill="#EFF3F8"/>
<path fill-rule="evenodd" clip-rule="evenodd" d="M37 42C41.4183 42 45 38.4183 45 34C45 29.5817 41.4183 26 37 26C32.5817 26 29 29.5817 29 34C29 38.4183 32.5817 42 37 42ZM41.0943 33.0259C41.6609 32.4215 41.6303 31.4723 41.0259 30.9057C40.4215 30.3391 39.4723 30.3697 38.9057 30.9741L36.1042 33.9624L34.937 33.0287C34.2901 32.5112 33.3462 32.6161 32.8287 33.263C32.3112 33.9099 32.4161 34.8538 33.063 35.3713L35.313 37.1713C35.9243 37.6604 36.8089 37.597 37.3443 37.0259L41.0943 33.0259Z" fill="#6CACE4"/>
</svg>
