<svg width="48" height="48" viewBox="0 0 48 48" fill="none" xmlns="http://www.w3.org/2000/svg">
<path d="M40.4993 27.75V34.5C40.4993 36.6027 40.1718 38.3779 39.8228 39.6726C39.4285 41.1355 38.0422 42 36.5272 42H15.7907C14.3713 42 13.0582 41.2478 12.3402 40.0234L8.00179 32.625C7.51235 31.7642 7.38328 30.7447 7.64273 29.789C7.90219 28.8334 8.52911 28.0191 9.38669 27.524C10.2443 27.0288 11.2629 26.893 12.2202 27.1461C13.1776 27.3992 13.996 28.0207 14.4968 28.875L17.9993 31.5V14.25C17.9993 13.2554 18.3944 12.3016 19.0976 11.5983C19.8009 10.8951 20.7547 10.5 21.7493 10.5C22.7439 10.5 23.6977 10.8951 24.4009 11.5983C25.1042 12.3016 25.4993 13.2554 25.4993 14.25V24.75C25.4993 23.7554 25.8944 22.8016 26.5976 22.0983C27.3009 21.3951 28.2547 21 29.2493 21C30.2439 21 31.1977 21.3951 31.9009 22.0983C32.6042 22.8016 32.9993 23.7554 32.9993 24.75V27.75C32.9993 26.7554 33.3944 25.8016 34.0976 25.0983C34.8009 24.3951 35.7547 24 36.7493 24C37.7439 24 38.6977 24.3951 39.4009 25.0983C40.1042 25.8016 40.4993 26.7554 40.4993 27.75Z" fill="#ACDCFA"/>
<path d="M32.25 14.625C32.25 11.8402 31.1438 9.16951 29.1746 7.20038C27.2055 5.23125 24.5348 4.125 21.75 4.125C18.9652 4.125 16.2945 5.23125 14.3254 7.20038C12.3562 9.16951 11.25 11.8402 11.25 14.625" stroke="#6CACE4" stroke-width="4" stroke-linecap="round"/>
</svg>
