<svg width="48" height="48" viewBox="0 0 48 48" fill="none" xmlns="http://www.w3.org/2000/svg">
<g clip-path="url(#clip0_576_734)">
<path d="M13 36V35.82C13 34.09 13 32.502 13.174 31.212C13.364 29.79 13.814 28.286 15.05 27.052C16.286 25.814 17.79 25.364 19.21 25.172C20.502 25 22.09 25 23.822 25H24.178C25.91 25 27.498 25 28.788 25.174C30.21 25.364 31.714 25.814 32.948 27.05C34.186 28.286 34.636 29.79 34.828 31.21C34.998 32.484 35 34.042 35 35.744C40.146 34.644 44 30.12 44 24.704C44 19.764 40.786 15.56 36.31 14.03C35.674 8.388 30.83 4 24.952 4C18.64 4 13.524 9.056 13.524 15.294C13.524 16.674 13.774 17.994 14.232 19.218C13.6851 19.1117 13.1292 19.0581 12.572 19.058C7.838 19.06 4 22.852 4 27.53C4 32.208 7.838 36 12.572 36H13Z" fill="#ACDCFA"/>
<path fill-rule="evenodd" clip-rule="evenodd" d="M24 44C20.228 44 18.344 44 17.172 42.828C16 41.656 16 39.772 16 36C16 32.228 16 30.344 17.172 29.172C18.344 28 20.228 28 24 28C27.772 28 29.656 28 30.828 29.172C32 30.344 32 32.228 32 36C32 39.772 32 41.656 30.828 42.828C29.656 44 27.772 44 24 44ZM28.5 34.276C28.7501 34.0256 28.8905 33.6862 28.8903 33.3323C28.8901 32.9784 28.7494 32.6391 28.499 32.389C28.375 32.2652 28.2279 32.167 28.066 32.1C27.904 32.033 27.7305 31.9986 27.5553 31.9987C27.2014 31.9989 26.8621 32.1396 26.612 32.39L22.222 36.78L21.388 35.946C21.1359 35.7059 20.7999 35.5739 20.4517 35.5781C20.1036 35.5823 19.7709 35.7225 19.5247 35.9687C19.2785 36.2149 19.1383 36.5476 19.1341 36.8957C19.1299 37.2439 19.2619 37.5799 19.502 37.832L21.28 39.61C21.8 40.13 22.644 40.13 23.164 39.61L28.5 34.276Z" fill="#6CACE4"/>
</g>
<defs>
<clipPath id="clip0_576_734">
<rect width="48" height="48" fill="white"/>
</clipPath>
</defs>
</svg>
