<svg width="104" height="104" viewBox="0 0 104 104" fill="none" xmlns="http://www.w3.org/2000/svg">
<path d="M32.5007 86.6667H82.334L95.334 99.6667V54.1667C95.334 49.4 91.434 45.5 86.6673 45.5L32.5007 45.5C27.734 45.5 23.834 49.4 23.834 54.1667L23.834 78C23.834 82.7667 27.734 86.6667 32.5007 86.6667Z" fill="#6CACE4"/>
<path d="M62.3997 71.0666H54.5997L53.0831 75.6166H48.3164L56.3331 53.95H60.4497L68.4664 75.6166H63.6997L62.3997 71.0666ZM55.6831 67.6H61.0997L58.4997 59.3666L55.6831 67.6Z" fill="#BAD5ED"/>
<path d="M71.4994 54.1667L21.666 54.1667L8.66602 67.1667L8.66602 17.3334C8.66602 12.5667 12.566 8.66675 17.3327 8.66675L71.4994 8.66675C76.266 8.66675 80.166 12.5667 80.166 17.3334V45.5001C80.166 50.2667 76.266 54.1667 71.4994 54.1667Z" fill="#BAD5ED"/>
<path d="M55.0335 30.7668C55.0335 32.9334 54.6001 34.6668 53.9501 36.1835C53.3001 37.7001 52.4335 39.0001 51.1335 39.8668L54.8168 42.6835L52.0001 45.2834L47.2335 41.6001C46.8001 41.6001 46.1501 41.8168 45.5001 41.8168C44.2001 41.8168 42.9001 41.6001 41.6001 41.1668C40.5168 40.7334 39.4335 39.8668 38.5668 39.0001C37.7001 38.1334 37.0501 36.8334 36.6168 35.5334C36.1835 34.2334 35.9668 32.7168 35.9668 30.9834V30.1168C35.9668 28.3834 36.1835 26.8668 36.6168 25.5668C37.0501 24.2668 37.7001 22.9668 38.5668 22.1001C39.4335 21.2334 40.3001 20.3668 41.6001 19.9334C42.6835 19.5001 43.9835 19.2834 45.5001 19.2834C46.8001 19.2834 48.1001 19.5001 49.4001 19.9334C50.4835 20.3668 51.5668 21.2334 52.4335 22.1001C53.3001 22.9668 53.9501 24.2668 54.3835 25.5668C54.8168 26.8668 55.0335 28.3834 55.0335 30.1168V30.7668ZM50.2668 29.6834C50.2668 27.3001 49.8335 25.5668 48.9668 24.4834C48.1001 23.1834 47.0168 22.7501 45.5001 22.7501C43.9835 22.7501 42.6835 23.4001 42.0335 24.4834C41.1668 25.7834 40.7335 27.5168 40.7335 29.6834V30.7668C40.7335 31.8501 40.9501 32.9334 41.1668 33.8001C41.3835 34.6668 41.6001 35.5334 42.0335 35.9668C42.4668 36.6168 42.9001 37.0501 43.5501 37.2668C44.2001 37.4834 44.8501 37.7001 45.5001 37.7001C47.0168 37.7001 48.3168 37.0501 48.9668 35.9668C49.8335 34.6668 50.2668 32.9334 50.2668 30.5501V29.6834Z" fill="#6CACE4"/>
</svg>
