<svg width="48" height="49" viewBox="0 0 48 49" fill="none" xmlns="http://www.w3.org/2000/svg">
<path fill-rule="evenodd" clip-rule="evenodd" d="M29.0844 29.8108C29.0157 30.3575 28.8382 30.885 28.5625 31.3622C28.2868 31.8394 27.9184 32.2567 27.4789 32.5897C27.0394 32.9227 26.5377 33.1645 26.0032 33.3011L25.0471 33.545C24.978 34.2437 24.9849 34.9479 25.0678 35.6452L25.7921 35.8168C26.3408 35.9464 26.8572 36.1866 27.3097 36.5226C27.7621 36.8587 28.141 37.2836 28.4232 37.7712C28.7053 38.2587 28.8848 38.7987 28.9505 39.3581C29.0162 39.9174 28.9668 40.4842 28.8054 41.0238L28.5426 41.8982C29.0779 42.3199 29.6539 42.6762 30.2706 42.9669L30.9432 42.2558C31.3304 41.8463 31.7974 41.5201 32.3153 41.2973C32.8333 41.0745 33.3914 40.9598 33.9553 40.9602C34.5193 40.9606 35.0772 41.0761 35.5948 41.2996C36.1125 41.5231 36.5789 41.8499 36.9656 42.26L37.663 43C38.2701 42.7202 38.8371 42.3771 39.3642 41.9706L39.0414 40.8213C38.8923 40.2908 38.8509 39.7359 38.9196 39.1892C38.9884 38.6425 39.1658 38.1151 39.4415 37.6378C39.7172 37.1606 40.0857 36.7433 40.5252 36.4103C40.9647 36.0773 41.4664 35.8355 42.0008 35.6989L42.9528 35.455C43.022 34.7556 43.0151 34.0507 42.9321 33.3527L42.2119 33.1832C41.663 33.0537 41.1463 32.8134 40.6937 32.4772C40.2411 32.141 39.8621 31.7159 39.5799 31.2281C39.2978 30.7403 39.1184 30.2 39.0528 29.6404C39.0237 28.978 39.0589 28.598 39.1986 27.9741L39.4594 27.1038C38.9263 26.6814 38.3465 26.3215 37.7313 26.031L37.0587 26.7421C36.6717 27.1518 36.2049 27.4781 35.687 27.7011C35.1691 27.924 34.611 28.039 34.0471 28.0388C33.4831 28.0386 32.9252 27.9233 32.4075 27.6999C31.8897 27.4766 31.4232 27.15 31.0364 26.74L30.3389 26C29.7352 26.2779 29.1646 26.6225 28.6378 27.0274L28.9627 28.1787C29.0824 28.8073 29.1046 29.1626 29.0844 29.8108ZM32.5366 35.9617C32.9247 36.3493 33.4511 36.5671 33.9999 36.5671C34.5488 36.5671 35.0752 36.3493 35.4633 35.9617C35.8514 35.574 36.0695 35.0482 36.0695 34.5C36.0695 33.9518 35.8514 33.426 35.4633 33.0383C35.0752 32.6507 34.5488 32.4329 33.9999 32.4329C33.4511 32.4329 32.9247 32.6507 32.5366 33.0383C32.1484 33.426 31.9304 33.9518 31.9304 34.5C31.9304 35.0482 32.1484 35.574 32.5366 35.9617Z" fill="#6CACE4"/>
<path fill-rule="evenodd" clip-rule="evenodd" d="M5 14C5 10.6863 7.68629 8 11 8H33C36.3137 8 39 10.6863 39 14V21.9193C37.4472 21.3254 35.7616 21 34 21C33.6638 21 33.3303 21.0119 33 21.0352V16C33 14.8954 32.1046 14 31 14C29.8954 14 29 14.8954 29 16V21.9193C27.0997 22.6461 25.3984 23.775 24 25.202V22C24 20.8954 23.1046 20 22 20C20.8954 20 20 20.8954 20 22V33C20 33.1885 20.0261 33.3709 20.0748 33.5438C20.0254 34.0225 20 34.5083 20 35C20 37.55 20.6818 39.9408 21.8729 42H11C7.68629 42 5 39.3137 5 36V14ZM13 18C11.8954 18 11 18.8954 11 20V33C11 34.1046 11.8954 35 13 35C14.1046 35 15 34.1046 15 33V20C15 18.8954 14.1046 18 13 18Z" fill="#ACDCFA"/>
</svg>
