<svg width="28" height="28" viewBox="0 0 28 28" fill="none" xmlns="http://www.w3.org/2000/svg">
<g clip-path="url(#clip0_576_1015)">
<mask id="mask0_576_1015" style="mask-type:luminance" maskUnits="userSpaceOnUse" x="3" y="3" width="23" height="23">
<path d="M25.2076 3H3V25.2076H25.2076V3Z" fill="white"/>
</mask>
<g mask="url(#mask0_576_1015)">
<path fill-rule="evenodd" clip-rule="evenodd" d="M7.40899 5.26181C9.22411 3.86949 11.4848 3.14056 13.761 3.021C13.6777 5.07862 13.7087 7.17675 13.1391 9.17264C12.7148 10.7346 11.6165 12.1212 10.1288 12.8C7.8894 13.7622 5.39239 13.6909 3 13.7873C3 10.4705 4.74539 7.22882 7.40899 5.26181Z" fill="#FDFDFD"/>
<path fill-rule="evenodd" clip-rule="evenodd" d="M14.4395 3C16.4542 3.16778 18.4727 3.69423 20.1619 4.83779C23.1722 6.76235 25.1443 10.2181 25.2005 13.7876C22.9882 13.7104 20.712 13.7413 18.5928 13.0181C17.0624 12.4801 15.7762 11.2748 15.2415 9.73788C14.4588 7.58769 14.4782 5.25622 14.4395 3Z" fill="#FDFDFD"/>
<path fill-rule="evenodd" clip-rule="evenodd" d="M18.9937 15.0751C21.016 14.5217 23.1276 14.5043 25.2081 14.4561C25.1365 17.2659 23.9316 20.0331 21.9014 21.9904C19.9448 23.9574 17.2076 25.0932 14.4375 25.2051C14.4917 22.9083 14.453 20.5287 15.2937 18.3496C15.8922 16.7394 17.3529 15.5398 18.9937 15.0751Z" fill="#FDFDFD"/>
<path fill-rule="evenodd" clip-rule="evenodd" d="M3.00006 14.4609C5.5145 14.5496 8.19942 14.4338 10.493 15.6334C12.0622 16.4317 12.9861 18.0921 13.3155 19.764C13.6912 21.5537 13.7029 23.3894 13.7495 25.208C10.7797 25.0942 7.86817 23.7867 5.87094 21.5864C4.11781 19.6503 2.99038 17.0854 3.00006 14.4609Z" fill="#FDFDFD"/>
</g>
</g>
<defs>
<clipPath id="clip0_576_1015">
<rect width="28" height="28" fill="white"/>
</clipPath>
</defs>
</svg>
