<svg width="28" height="28" viewBox="0 0 28 28" fill="none" xmlns="http://www.w3.org/2000/svg">
<g clip-path="url(#clip0_576_1011)">
<g clip-path="url(#clip1_576_1011)">
<path fill-rule="evenodd" clip-rule="evenodd" d="M16.8373 15.2198C16.9275 15.2556 17.0235 15.2928 17.1253 15.3315C17.1646 15.2094 17.198 15.068 17.2141 14.9072C17.0773 14.9058 16.9435 14.9028 16.8125 14.8983C16.8227 15.01 16.8301 15.1201 16.8373 15.2198ZM12.4691 4.05286C12.9796 4.18533 13.6662 4.33568 14.1782 4.34312C13.2662 3.07042 11.7796 2.77569 10.4268 3.1508C11.3228 3.35175 11.9817 3.67476 12.4691 4.05136V4.05286ZM14.7572 4.24041C14.5797 3.94568 14.331 3.6316 13.9862 3.34728C14.0182 3.30858 14.0575 3.25947 14.1012 3.2029C14.5928 3.35175 14.9739 3.54526 15.2692 3.74919C15.1281 3.95312 14.9565 4.13472 14.7558 4.23892L14.7572 4.24041ZM15.5063 3.3458C15.6663 3.02279 15.7478 2.74145 15.7478 2.74145C15.7419 2.76825 15.6998 3.05107 15.5601 3.38301C15.8365 3.5795 16.0489 3.78343 16.2074 3.97247C16.446 3.72984 16.8533 3.22969 16.8708 2.6313C16.8954 1.82601 16.2889 1.76497 16.2889 1.76497C16.2395 1.75902 16.2031 1.71436 16.2089 1.66376C16.2147 1.61315 16.2584 1.57742 16.3078 1.58189C16.3078 1.58189 17.0802 1.66078 17.0497 2.63725C17.0293 3.3071 16.5755 3.85786 16.3194 4.11537C16.3863 4.20468 16.4402 4.28804 16.4852 4.36246L17.5239 3.58843C18.1101 2.72657 18.0694 1.83493 18.0694 1.83196C18.0694 1.78135 18.1072 1.73818 18.1566 1.73669C18.2061 1.7352 18.2483 1.7754 18.2497 1.82601C18.2497 1.82898 18.2817 2.53306 17.8933 3.31305L21.2492 0.810827L16.7398 4.94746C16.8547 5.28089 16.8678 5.57562 16.8387 5.85845L16.894 5.87928C17.9748 5.15139 19.2054 4.65868 19.2083 4.6572C19.2083 4.6572 18.3661 5.37914 17.4031 6.08768C17.6126 6.17997 17.8395 6.28714 18.0723 6.40921C18.3064 6.27226 18.6978 6.06386 19.1269 5.92096C19.4542 5.51757 19.6956 5.3717 19.6956 5.3717C19.7291 5.34937 19.7742 5.36128 19.7946 5.39551C19.8149 5.42974 19.8047 5.47589 19.7713 5.49673C19.7713 5.49673 19.6141 5.59199 19.3814 5.84653C19.5007 5.81677 19.62 5.79444 19.7378 5.78104C19.9895 5.75276 20.1815 5.78402 20.3284 5.84653C20.4448 5.69768 20.5466 5.5399 20.6208 5.37467C20.983 4.56491 20.3764 4.91769 20.3764 4.91769C20.3414 4.93704 20.2978 4.92514 20.2789 4.88941C20.26 4.85368 20.2716 4.80903 20.3066 4.78967C20.3095 4.78819 21.3001 4.21064 20.7517 5.4357C20.6761 5.60391 20.5742 5.76467 20.4579 5.91649C20.7561 6.11745 20.7895 6.45535 20.7895 6.45535C20.7953 6.50595 20.759 6.5521 20.7095 6.55656C20.6601 6.56253 20.6149 6.52531 20.6106 6.4747C20.6106 6.4747 20.5844 6.21271 20.3386 6.0594C19.9473 6.50893 19.4382 6.85725 19.1225 7.04928C19.6869 7.45564 20.2222 7.95877 20.6106 8.56904C21.2114 8.05106 21.7438 7.91858 21.9096 8.81763V8.82063L21.9197 8.87573C21.9619 8.8087 22.0041 8.74475 22.0478 8.68223C22.1627 8.51545 22.2703 8.40234 22.3707 8.33089C22.3881 8.2803 22.3969 8.2505 22.3969 8.2505C22.4085 8.21185 22.4492 8.18948 22.4871 8.20142C22.5088 8.20884 22.5248 8.22521 22.5336 8.24607C22.9714 8.10613 23.2347 8.73582 23.2347 8.73582C23.2507 8.77297 23.2347 8.81613 23.1983 8.83257C23.162 8.84893 23.1198 8.83257 23.1038 8.79534C23.1038 8.79534 22.8711 8.23714 22.4827 8.447C22.4085 8.65093 22.2514 9.0365 21.9911 9.46515C22.0274 9.99212 22.0187 10.7647 21.7684 11.4866L21.8063 11.5074C21.7684 11.5804 21.7263 11.6458 21.6841 11.7084C21.5823 11.9465 21.4499 12.1772 21.2826 12.3857C20.5102 13.3428 19.6055 13.578 19.1458 13.6331C19.1879 13.8936 19.1924 14.1928 19.1371 14.5307C19.6549 14.5247 20.1931 14.5128 20.7139 14.4934C21.5823 14.4607 22.4042 14.4071 23.0093 14.3237C23.4107 14.2686 23.6347 14.1897 23.7424 14.1139C23.6231 14.1243 23.0224 14.1019 23.4224 13.8489C23.6115 13.7283 23.8166 13.7239 23.9534 13.7834C24.0522 13.8265 24.1235 13.904 24.1497 14.0008C24.1759 14.1004 24.154 14.2091 24.0653 14.3104C23.9417 14.4533 23.6391 14.6065 23.0572 14.6869C22.4405 14.7718 21.607 14.8254 20.7255 14.8581C20.1742 14.879 19.6026 14.8909 19.0542 14.8969C18.9537 15.2496 18.8025 15.5444 18.6294 15.7885C19.4702 15.9983 20.4564 16.1591 21.5023 16.1591C24.509 16.1591 26 15.6068 26 15.6068C26 15.6068 24.205 16.5387 21.9794 16.631C21.9081 16.8736 21.6899 17.2458 21.0208 17.2458C20.3109 17.2458 19.332 16.7501 18.8315 16.4672C19.2738 17.1162 19.3305 17.999 19.3305 18.0019C19.3349 18.0526 19.297 18.0972 19.2476 18.1001C19.1981 18.1046 19.1545 18.0659 19.1516 18.0153C19.1516 18.0123 19.0745 16.8125 18.3996 16.2543L18.2512 16.2246C17.9937 16.4687 17.7348 16.628 17.5501 16.7247L19.6782 19.3357L19.4935 19.5039L17.3173 16.9942C17.2766 17.0373 17.2286 17.0835 17.1733 17.1326C17.025 17.4348 16.7777 17.8471 16.3834 18.2981C16.6802 18.3622 17.15 18.5422 17.5457 19.0409C18.2032 19.8686 17.3682 20.595 17.3654 20.5979L17.3013 20.5339C17.3013 20.5339 17.9617 19.8566 17.4061 19.157C16.9871 18.6286 16.4838 18.4931 16.2379 18.4589C16.0606 18.6479 15.8569 18.84 15.6242 19.0335C15.8147 19.3267 16.0023 19.6542 16.11 19.9504C16.1958 20.1871 16.2555 20.4699 16.2467 20.7482C16.2176 21.7114 15.3594 22.0269 14.523 22.0016C14.2903 21.9942 14.0531 21.9525 13.816 21.8855C13.9324 22.4243 13.995 23.0778 13.9339 23.8385C13.72 26.4761 11.5163 26.3035 11.5105 26.305C11.5105 26.305 13.5688 26.1486 13.755 23.8236C13.8189 23.0347 13.7288 22.3604 13.5818 21.8111C13.2066 21.6786 12.8357 21.4911 12.4894 21.2811C12.3381 21.5372 12.0894 21.7292 11.6807 21.7188C11.589 21.7158 11.4988 21.6994 11.413 21.6741C11.2297 21.7277 11.0087 21.692 10.7467 21.5104C10.5635 21.3839 10.4093 21.232 10.2813 21.0728C9.9264 21.6101 9.55836 22.1519 9.18157 22.6848C9.12196 23.8683 9.01575 25.0129 8.83687 25.9283C8.57358 27.271 8.33647 28.2237 7.62225 27.9543C8.04118 28.0406 8.35684 27.2323 8.57794 26.1055C8.74668 25.2422 8.85577 24.1659 8.92416 23.0465C8.3772 23.8057 7.81863 24.5381 7.26732 25.193C6.85422 25.6828 6.35964 26.2112 5.90144 26.3556C6.8804 25.4029 7.93791 24.0618 8.94738 22.6417C8.97502 22.1044 8.99543 21.561 9.00997 21.0296C8.03101 22.3618 6.99386 23.6688 6.05854 24.6363C2.47289 28.0525 4.9283 23.5511 5.09412 23.7417C5.08975 23.7506 3.55076 26.7426 5.85634 24.3579C6.84985 23.3309 7.97136 21.9391 9.02162 20.5488V20.4401C8.78596 20.3895 8.5343 20.324 8.28556 20.2422C8.18374 20.3612 8.08483 20.4758 7.99027 20.5845C7.74153 21.82 6.96767 22.725 6.96476 22.728C6.93277 22.7667 6.87458 22.7696 6.83821 22.7369C6.80039 22.7042 6.79748 22.6461 6.82949 22.6075C6.8324 22.6045 7.44334 21.8885 7.73572 20.8733C7.63826 20.9819 7.54516 21.0847 7.45933 21.1769C6.51383 22.5256 6.13854 22.0582 6.00181 21.9227C5.9698 21.884 5.97417 21.826 6.01199 21.7932C6.04981 21.7604 6.10654 21.7649 6.13854 21.8036C6.13854 21.8036 6.36401 22.0924 7.32988 21.0504C7.47679 20.8911 7.64407 20.7066 7.82444 20.5011C7.84917 20.3687 7.86809 20.2318 7.87682 20.0919L7.78954 20.0531C7.46371 20.2749 7.00841 20.4193 6.37419 20.3672C6.28982 20.3597 6.20981 20.3508 6.12981 20.3374C5.95671 20.595 5.71088 20.7825 5.43014 20.8911C5.11885 21.0117 4.76392 21.0385 4.41918 20.9641C4.07443 20.8897 3.73841 20.714 3.46204 20.4297C3.14638 20.1067 2.91073 19.6453 2.83073 19.0365C2.66781 17.7965 3.27439 17.1133 3.83733 16.7515C3.73259 16.4896 3.67586 16.299 3.65986 16.2365C3.5595 16.1547 3.45766 16.0698 3.3573 15.982L3.30493 15.9968C3.30493 15.9968 3.29766 15.9686 3.28748 15.9209C3.19875 15.8421 3.11147 15.7602 3.0271 15.6769L3.01546 15.6649C2.52525 15.1811 2.11506 14.6393 1.99723 14.1064C1.82121 13.3101 2.24015 12.6372 2.70854 12.1594L2.72163 12.146C2.85836 12.0075 3.00092 11.8855 3.13183 11.7828C3.19148 11.3898 3.29766 11.0415 3.4344 10.7334C3.38057 10.3122 3.35439 9.87751 3.37039 9.44436C3.37766 9.23592 3.39512 9.02757 3.42421 8.82214C3.25547 8.86379 3.07947 8.92331 2.90055 9.0052C2.68236 9.10645 2.50489 9.21956 2.36234 9.3401C2.08886 9.57383 1.95068 9.83728 1.90413 10.0919C1.89686 10.135 1.89104 10.1782 1.88813 10.2198C1.9725 10.2347 2.05832 10.2541 2.14269 10.2794C2.55435 10.4044 2.9471 10.6604 3.02274 10.9686C3.06783 11.1532 3.05183 11.305 2.99219 11.4181C2.94565 11.5089 2.87291 11.5729 2.78418 11.6101C2.70127 11.6443 2.60526 11.6519 2.50343 11.634C2.33761 11.6042 2.14851 11.4985 1.97832 11.3094C1.73394 11.3124 0.971718 11.2693 1.00081 10.6292C1.00808 10.4654 1.08954 10.3508 1.22046 10.2794C1.32228 10.2228 1.45465 10.1961 1.60157 10.1945C1.60593 10.1425 1.61175 10.0889 1.62193 10.0368C1.68012 9.71974 1.84886 9.39519 2.17905 9.11388C2.34052 8.9754 2.5398 8.84743 2.78272 8.73582C3.02129 8.62564 3.25402 8.55268 3.47658 8.50802C3.61913 7.77419 3.91151 7.07011 4.41772 6.46427C4.06861 6.1234 3.54931 5.69322 2.80018 5.23475C3.76459 5.33597 4.39736 5.72299 4.78574 6.07726C5.13339 5.76169 5.50432 5.56074 5.88253 5.44612C6.00617 5.36276 6.12981 5.2928 6.252 5.23773C5.96253 4.80605 5.30068 4.06476 3.8766 3.29668C5.66433 3.72686 6.44256 4.53216 6.76548 5.03082C6.77275 5.02486 6.7873 5.01296 6.81058 4.99658H6.81203L6.81349 4.9936H6.81639L6.82803 4.98319L6.85422 4.96532C6.93567 4.86708 7.03022 4.75842 7.14077 4.64082C6.81785 4.16152 6.19964 3.44404 5.04758 2.63279C6.38874 3.01386 7.13786 3.69858 7.5408 4.24487C8.84559 3.05107 10.4922 2.4244 12.1825 2.4497C12.9956 2.4631 13.6648 2.57325 14.216 2.73847C14.6539 2.14306 15.2518 1.18742 15.0103 0.670906C14.8604 0.350867 14.5783 0.170755 14.2466 0.182662C13.9411 0.193082 13.5949 0.291326 13.2619 0.453575C12.9534 0.603918 12.6553 0.812313 12.4095 1.05792C12.1461 1.32139 12.0836 1.55062 12.1316 1.71883C12.1549 1.79772 12.2014 1.86619 12.264 1.9168C12.328 1.9689 12.4079 2.00463 12.4924 2.01951C13.3113 2.16241 12.9127 1.12044 12.7047 1.52532C12.6742 1.58487 12.6072 1.6191 12.5447 1.59975C11.8668 1.39582 13.787 0.865904 13.1309 1.9049C12.9694 2.15943 12.7018 2.24279 12.4618 2.20111C12.3483 2.18176 12.2392 2.13265 12.1505 2.05971C12.0603 1.98528 11.9905 1.88704 11.9571 1.76944C11.8916 1.54021 11.9614 1.24399 12.2814 0.925438C12.5403 0.66644 12.856 0.447622 13.1818 0.28686C13.5339 0.117167 13.9048 0.01297 14.235 0.00106144C14.5768 -0.0108471 14.8794 0.076977 15.0815 0.288348C15.1427 0.352355 15.1951 0.428271 15.2357 0.516094C15.5034 1.08918 14.8852 2.12669 14.4023 2.80248C14.8502 2.9558 15.2125 3.14485 15.5049 3.34431L15.5063 3.3458ZM15.339 3.7998L15.3361 3.80427C15.1849 4.02755 15.0292 4.24934 14.8328 4.3714C14.8692 4.43689 14.9012 4.50239 14.9317 4.56491C15.1296 4.64975 15.3347 4.76437 15.5208 4.88048C15.6052 4.93407 15.6881 4.98765 15.7638 5.04124L16.1362 4.69143C16.03 4.48453 15.7972 4.13472 15.339 3.7998ZM13.5309 4.42945C13.3505 4.44434 13.0451 4.56193 13 4.55896C12.9156 4.46071 12.8226 4.36246 12.7207 4.26869C12.9767 4.32972 13.2574 4.38777 13.5309 4.42945ZM14.5579 18.5899H14.6117L14.5957 18.5705L14.5579 18.5899ZM14.7921 18.584C14.8285 18.581 14.8633 18.5779 14.8997 18.5735C14.8735 18.5304 14.8445 18.4842 14.8139 18.4365C14.7834 18.4574 14.7542 18.4768 14.7237 18.4961C14.747 18.5244 14.7703 18.5542 14.7921 18.5825V18.584ZM15.0554 18.5512L15.0874 18.5452C15.0248 18.4633 14.971 18.3964 14.9347 18.3502L14.9317 18.3532C14.9769 18.4232 15.019 18.4916 15.0554 18.5527V18.5512ZM15.2416 18.5065C15.4176 18.4559 15.5863 18.3785 15.7405 18.2668C15.8394 18.1954 15.9267 18.124 16.0053 18.0555C16.0983 17.9349 16.1812 17.8129 16.2569 17.6923C16.1842 17.7191 16.11 17.7429 16.0314 17.7652L15.9515 17.7861L15.918 17.8188C15.6852 18.0391 15.3812 18.1835 15.0627 18.2773C15.1077 18.3324 15.1689 18.4112 15.2401 18.5065H15.2416ZM15.0844 18.9114L15.0336 18.9189L15.0801 18.9903L15.1077 18.9679L15.083 18.9114H15.0844ZM14.8721 18.9382C14.4285 18.9769 13.9964 18.9114 13.6735 18.8355C13.3462 18.8653 13.0232 18.8355 12.7309 18.779C12.4458 18.8489 12.1258 18.9204 11.8159 18.9873C12.2451 19.4115 13.2473 20.2198 14.699 19.2642C14.7906 19.2032 14.8794 19.1422 14.9638 19.0796C14.9361 19.0365 14.9041 18.9888 14.8707 18.9397L14.8721 18.9382ZM3.27148 15.0546C3.2802 15.0233 3.28894 14.9936 3.30057 14.9653C3.34566 14.8462 3.40675 14.7629 3.47221 14.7063C3.37185 14.3847 3.28166 14.0439 3.20747 13.6822C3.14493 13.383 3.1071 13.1001 3.08819 12.8322C2.98201 13.3815 2.90928 14.1719 3.1682 14.8268C3.19875 14.9058 3.23511 14.9817 3.27293 15.0546H3.27148ZM3.61768 15.1394C3.58277 15.2571 3.5784 15.397 3.58568 15.5235C3.69041 15.6486 3.80096 15.7587 3.91151 15.8569C3.85915 15.7423 3.80678 15.6233 3.75732 15.5011L3.72532 15.5087C3.72532 15.5087 3.71223 15.4506 3.69913 15.3553C3.6715 15.2839 3.64386 15.2124 3.61768 15.1379V15.1394ZM8.15319 6.46279C8.17647 6.49703 8.21138 6.52531 8.25938 6.54019C8.4703 6.6042 8.65504 6.47619 8.65504 6.47619C8.65504 6.47619 8.65504 6.73817 8.43393 6.76943C8.34521 6.78282 8.24192 6.76645 8.15174 6.74264C8.16047 6.81855 8.17501 6.88703 8.19246 6.94507C8.37866 6.93019 8.54885 6.92424 8.68995 6.92424C8.71759 6.73371 8.74668 6.53275 8.77141 6.3318C8.60703 6.24696 8.43248 6.1636 8.2492 6.09066C8.19392 6.22314 8.16337 6.34817 8.15029 6.4613L8.15319 6.46279ZM6.91531 6.79474C6.91531 6.79474 6.82949 6.43749 6.80767 5.76764H6.79167C6.32328 6.33925 6.27527 7.06713 6.2971 7.50179C6.34074 7.47648 6.38728 7.45118 6.43383 7.42438C6.68403 7.29042 6.94731 7.19068 7.20769 7.11774C7.07677 6.83641 6.99095 6.42409 7.10441 5.84653C7.06222 5.91352 7.02004 5.98795 6.98658 6.06981C6.86585 6.35562 6.91385 6.79474 6.91385 6.79474H6.91531ZM8.23901 5.40593C8.33938 5.28238 8.46739 5.13353 8.61431 4.98467C8.2332 4.97277 8.02519 5.05761 7.70371 5.17372C7.76772 5.19456 7.83172 5.21689 7.89427 5.24219C8.01064 5.28834 8.1241 5.3449 8.23756 5.40593H8.23901ZM8.87323 5.23921C8.75104 5.36425 8.64049 5.48929 8.55176 5.59646C8.64776 5.66047 8.74086 5.72894 8.83541 5.80188C8.85286 5.62028 8.86596 5.44761 8.87177 5.29875V5.23921H8.87323ZM14.4473 4.8001C14.3325 4.78224 14.2088 4.7733 14.0837 4.77182C14.235 4.82243 14.3775 4.88048 14.5099 4.943C14.491 4.89686 14.4706 4.84922 14.4473 4.8001ZM14.2844 6.23653C14.3135 6.03856 14.3135 5.79742 14.3048 5.58009C14.1041 5.55329 13.8641 5.53246 13.5804 5.5265C13.7157 5.86886 13.7826 6.19337 13.8189 6.4613C13.9571 6.39878 14.1186 6.32138 14.2844 6.23802V6.23653ZM15.5674 17.8605C15.5296 17.865 15.4932 17.8694 15.4583 17.8739C15.4248 17.9081 15.39 17.9424 15.355 17.9766C15.4293 17.9424 15.5005 17.9036 15.5689 17.8605H15.5674ZM16.4882 16.7679C16.6264 16.6741 16.7296 16.5804 16.7965 16.5089C16.8635 16.2797 16.8969 16.0832 16.9085 15.9403L16.8547 15.9269C16.7863 16.0683 16.6788 16.2737 16.5275 16.5179C16.5187 16.5983 16.5056 16.6816 16.4882 16.7665V16.7679ZM12.2305 20.2943C12.2058 20.4163 12.1651 20.583 12.1054 20.7602C12.1898 20.8212 12.2756 20.8822 12.3643 20.9418C12.4429 20.714 12.4589 20.4625 12.4589 20.2913C12.3862 20.2943 12.309 20.2958 12.2305 20.2928V20.2943ZM12.021 20.9865C11.9454 21.165 11.8494 21.3377 11.7287 21.4687C11.989 21.4613 12.1592 21.3303 12.2683 21.1517C12.1839 21.0966 12.1025 21.0415 12.021 20.985V20.9865ZM10.1387 20.8941C10.0718 20.7944 10.0136 20.6947 9.96271 20.5979C9.80565 20.5815 9.60633 20.5547 9.38234 20.5176L9.23982 20.714C9.23106 21.2305 9.21797 21.7604 9.19467 22.2889C9.51619 21.8275 9.83329 21.36 10.1373 20.8956L10.1387 20.8941ZM9.82019 20.2853C9.79834 20.2318 9.77946 20.1797 9.76347 20.132C9.72129 20.1365 9.68201 20.1424 9.64561 20.1499L9.57435 20.2496C9.6616 20.263 9.74451 20.2749 9.82019 20.2838V20.2853ZM7.96555 19.483C7.87681 19.5708 7.79245 19.6423 7.71971 19.6973L7.7459 19.7108C7.83027 19.6393 7.903 19.5619 7.96555 19.4815V19.483ZM7.09859 19.2686C7.24406 19.2404 7.39824 19.1719 7.52479 19.026C7.59171 18.9472 7.64698 18.8712 7.69353 18.8012C7.34297 18.6376 7.02877 18.4395 6.7553 18.2356C6.63457 18.377 6.51093 18.5259 6.38437 18.6807C6.64184 18.9084 6.88476 19.1019 7.09859 19.2701V19.2686ZM5.9218 19.2568L5.85925 19.3372C5.70797 19.5306 5.56687 19.6929 5.43304 19.8283C5.70797 19.9534 6.02799 20.0457 6.3931 20.0754C6.85422 20.1141 7.20478 20.0338 7.47243 19.8954C7.44334 19.8775 7.41279 19.8611 7.38515 19.8433V19.8522C6.74657 19.6884 6.4731 19.5842 5.92326 19.2568H5.9218ZM2.64162 14.0082C2.61253 13.4649 2.69544 12.9394 2.77836 12.5687C2.62562 12.8829 2.57471 13.3428 2.6198 13.8221C2.62562 13.8831 2.6329 13.9457 2.64162 14.0082ZM11.1454 4.163C11.4159 4.28953 11.6515 4.44136 11.8566 4.60957C11.333 4.69739 10.8632 4.89834 10.4427 5.16479C10.2595 4.99807 10.0413 4.84624 9.77946 4.71971C9.72852 4.6959 9.67911 4.67357 9.62963 4.65273C9.97147 4.39819 10.5111 4.10792 11.1454 4.1645V4.163ZM9.37945 4.38479C9.61219 4.20766 9.93218 4.00968 10.3148 3.89209C10.0093 3.82957 9.6718 3.79682 9.30088 3.7998C9.32851 3.9561 9.3576 4.15705 9.37945 4.38479ZM19.94 8.55719C19.8237 8.55418 19.6665 8.58248 19.4978 8.70151C19.6272 8.92481 19.732 9.16597 19.8018 9.42791C19.9371 9.26272 20.0753 9.10495 20.2149 8.95762C20.132 8.81763 20.0403 8.68515 19.9414 8.55719H19.94ZM19.1254 9.15554C18.9145 9.57683 18.8127 10.1723 18.769 10.5131C18.769 10.5786 18.769 10.6441 18.7647 10.7111C18.7632 10.7587 18.7588 10.8048 18.7559 10.851C18.916 10.6113 19.1225 10.3137 19.3538 10.0026C19.3291 9.69295 19.2476 9.41155 19.1254 9.15554ZM18.6105 9.52174C18.6861 9.26122 18.7865 9.00369 18.9189 8.79826C18.4315 8.08976 17.6213 7.61045 16.9013 7.30232C16.9304 7.37973 16.9595 7.46159 16.9886 7.54645C17.5457 7.9022 18.2905 8.53782 18.6105 9.52174ZM19.2985 8.39933C19.4236 8.31152 19.5443 8.25793 19.6593 8.22821C18.7777 7.2919 17.5268 6.7084 16.7456 6.41069C16.7296 6.48363 16.7151 6.55656 16.6991 6.63099C17.5399 6.94507 18.6309 7.49881 19.2985 8.39933ZM20.6935 12.0701C20.9917 11.9868 21.3306 11.7977 21.5547 11.375L21.5764 11.3868C21.7627 10.8331 21.8019 10.2466 21.7903 9.77776C21.6462 9.98319 21.479 10.1915 21.2855 10.3865L21.2186 10.5325C21.2346 11.1993 21.0339 11.6994 20.6935 12.0686V12.0701ZM21.1648 12.1862C20.8375 12.3722 20.4986 12.4154 20.2775 12.4199C19.8964 12.67 19.428 12.8308 18.9247 12.9275L18.9218 12.9587C18.9378 12.99 18.9537 13.0228 18.9697 13.057C19.3087 13.1315 19.9037 13.1865 20.4738 12.8694C20.6892 12.7117 20.9059 12.5092 21.1139 12.2517C21.1313 12.2308 21.1473 12.2086 21.1648 12.1877V12.1862ZM17.9195 14.1213C18.1494 14.0335 18.3967 13.84 18.5349 13.4276C18.4927 13.3026 18.4389 13.194 18.3821 13.1017C18.3515 13.124 18.321 13.1463 18.2905 13.1686C18.2309 13.5214 18.0839 13.8474 17.9195 14.1228V14.1213ZM18.6032 12.1728C18.5814 12.0537 18.5537 11.9436 18.5218 11.8423C18.4679 11.9823 18.4053 12.1162 18.337 12.2458C18.369 12.2711 18.4039 12.3008 18.4432 12.3365C18.497 12.2844 18.5508 12.2293 18.6018 12.1728H18.6032ZM18.7007 11.4955C18.7472 11.6116 18.7923 11.7456 18.8315 11.8944C18.9305 11.759 19.0192 11.6116 19.0949 11.4524C18.9582 11.4717 18.8258 11.4851 18.7007 11.4955ZM18.6309 13.8995C18.3821 14.291 18.0286 14.425 17.7523 14.4651C17.7552 14.4919 17.7566 14.5172 17.7595 14.544C18.0199 14.544 18.2978 14.544 18.5857 14.544L18.5887 14.5322C18.6338 14.2984 18.6454 14.0886 18.6323 13.901L18.6309 13.8995ZM19.8135 13.2401C19.5167 13.2803 19.2432 13.2579 19.0352 13.2208C19.0585 13.2847 19.0804 13.3532 19.0978 13.4247C19.2708 13.4053 19.5225 13.3577 19.812 13.2416L19.8135 13.2401ZM15.2852 19.3043C15.323 19.3594 15.3332 19.4041 15.3245 19.4309C15.3492 19.5069 15.3187 19.5113 15.243 19.4488C15.2197 19.4383 15.1935 19.419 15.1673 19.3892C15.0787 19.4518 14.987 19.5128 14.8924 19.5753C14.267 19.9787 13.6735 20.1647 13.1483 20.2243C13.2982 20.4551 13.5659 20.9329 13.752 21.6399C14.0023 21.7173 14.2553 21.7649 14.5026 21.7709C15.2707 21.7872 16.0707 21.7144 16.0998 20.7527C16.1071 20.4952 16.0518 20.2318 15.9718 20.01C15.87 19.7287 15.6925 19.416 15.5092 19.1346C15.4379 19.1912 15.3638 19.2478 15.2881 19.3043H15.2852ZM12.8574 20.2586C12.8152 20.263 12.7658 20.269 12.709 20.2749C12.709 20.4773 12.6873 20.7959 12.5796 21.0832C12.8705 21.2648 13.1804 21.43 13.496 21.5521C13.2851 20.9016 13.0044 20.464 12.856 20.2601L12.8574 20.2586ZM9.30377 20.1662L9.2456 20.0873V20.1915L9.2791 20.1975L9.30377 20.1647V20.1662ZM10.1911 19.3684C10.3846 19.489 10.5882 19.5827 10.741 19.5649C10.9068 19.5455 11.0363 19.4503 11.1293 19.3446L11.285 19.096C10.9621 19.16 10.6828 19.2106 10.5155 19.2344C10.4341 19.2463 10.3512 19.2553 10.2653 19.2627L10.1911 19.3684ZM7.3546 17.5434C7.48115 17.6833 7.66299 17.8635 7.86954 18.0108C8.04118 17.8635 8.22156 17.6387 8.34229 17.3038L7.99173 16.8632C7.79681 17.0626 7.58444 17.2904 7.3546 17.5434ZM8.42375 18.2743C8.63031 18.316 8.83832 18.2833 9.02885 18.1269C9.0274 17.8054 9.02451 17.5166 9.02162 17.2666L8.90669 17.3365C8.79032 17.7622 8.6114 18.0629 8.42375 18.2758V18.2743ZM9.23982 17.9364C9.38234 17.795 9.48268 17.6655 9.55403 17.5494L9.24849 17.1282L9.22962 17.1401L9.23982 17.9364ZM9.64561 18.5572C9.77512 18.584 10.0762 18.6465 10.3817 18.6911C10.5184 18.4991 10.6537 18.3115 10.7831 18.1284C10.6013 18.0511 10.4006 17.9498 10.1984 17.8173C10.0922 17.9647 9.98312 18.1106 9.87546 18.255C9.79986 18.3562 9.72274 18.4574 9.64561 18.5572ZM10.6362 18.7239C10.7759 18.7387 10.9068 18.7462 11.0087 18.7417C11.0464 18.7402 11.0828 18.7358 11.1206 18.7283C11.2138 18.7015 11.3039 18.6733 11.3927 18.642C11.4901 18.5988 11.5803 18.5467 11.6559 18.4976L11.6894 18.4426C11.589 18.3964 11.5221 18.3622 11.4959 18.3487C11.4406 18.3383 11.2472 18.3011 10.9882 18.2073C10.8748 18.3755 10.7584 18.5482 10.6377 18.7239H10.6362ZM7.68044 8.04063C7.58443 8.09124 7.48843 8.1493 7.39243 8.21627C7.16114 8.37705 6.98077 8.56161 6.83821 8.75511C6.97058 8.7804 7.11459 8.8132 7.26878 8.85636C7.39679 8.89059 7.51752 8.92481 7.62953 8.95903L7.78372 8.81613L7.68044 8.04063ZM11.1977 6.3452C11.4857 6.31245 11.9556 6.26631 12.4822 6.23951C12.6756 6.23058 12.8385 6.2276 12.9724 6.23058C12.8967 6.01772 12.7935 5.78402 12.6538 5.54734C11.9497 5.59497 11.4218 5.7602 11.0363 5.95371C11.1017 6.08619 11.1555 6.21867 11.1977 6.3452ZM13.0218 6.37943C12.8836 6.37496 12.709 6.37646 12.4894 6.38836C12.1912 6.40325 11.9119 6.42409 11.6734 6.44642C12.2436 6.48065 12.709 6.58783 13.0829 6.60867C13.0669 6.53722 13.0451 6.4613 13.0204 6.37943H13.0218ZM3.46785 12.4779C3.52167 12.6 3.47949 12.7415 3.37621 12.8158C3.39221 13.0689 3.42857 13.3369 3.48822 13.6211C3.55659 13.9472 3.63513 14.2553 3.72532 14.547C3.78787 14.2255 3.92897 13.8727 4.21989 13.569C4.08316 13.2579 3.93769 12.8784 3.80823 12.4541C3.4344 12.402 3.46931 12.4794 3.46931 12.4794L3.46785 12.4779ZM3.39367 11.9763C3.47076 11.96 3.56095 11.9495 3.66423 11.9465C3.65113 11.8929 3.63659 11.8393 3.62349 11.7843C3.55804 11.8275 3.48094 11.8796 3.39803 11.9406L3.39367 11.9748V11.9763ZM4.3159 12.0016C4.48609 12.0299 4.67519 12.0701 4.88756 12.1237C4.80028 11.6414 4.80028 11.2321 4.87156 10.8882C4.96902 10.4163 5.19595 10.0665 5.50869 9.81791C5.48542 9.74796 5.45923 9.66164 5.43741 9.5664C4.92975 9.99655 4.33335 10.7647 4.3159 12.0016ZM5.27595 12.2308C5.35159 12.2532 5.42432 12.277 5.49414 12.2994C5.46796 11.9436 5.52323 11.494 5.78071 10.9909C5.8447 10.8674 5.91743 10.7573 5.99598 10.659C5.98435 10.5295 5.97125 10.2615 6.01489 9.9311C5.97853 9.94897 5.94362 9.96825 5.91016 9.98761C5.56978 10.1871 5.32104 10.5027 5.22504 10.9641C5.15521 11.3035 5.16539 11.7218 5.2774 12.2293L5.27595 12.2308ZM5.54942 12.8962L5.45341 12.8635L5.47087 12.9141L5.54942 12.8977V12.8962ZM5.03448 12.734C4.97921 12.7191 4.92247 12.7027 4.86429 12.6879C4.66355 12.6343 4.49191 12.5925 4.34499 12.5583C4.35517 12.6417 4.36681 12.728 4.38135 12.8143C4.44245 12.9811 4.50354 13.1374 4.56464 13.2803C4.72173 13.1775 4.90647 13.0853 5.12321 13.0108C5.09121 12.9156 5.06212 12.8233 5.03448 12.734ZM8.04555 20.1632L8.03682 20.2496L8.095 20.1826L8.04555 20.1632ZM22.2412 8.6703C22.2165 8.70152 22.1917 8.73432 22.167 8.77147C22.0957 8.87723 22.0245 8.98733 21.9547 9.10194C21.959 9.13917 21.9649 9.17933 21.9692 9.22257C22.0841 9.01713 22.1743 8.82656 22.2412 8.6703ZM21.7714 9.42049C21.6812 9.58276 21.5954 9.74796 21.5154 9.90723C21.6128 9.78368 21.7001 9.66014 21.7801 9.5381L21.7714 9.42049ZM21.1997 10.2288C21.351 9.90581 21.5401 9.52767 21.7467 9.1719C21.7263 9.00077 21.7045 8.89059 21.7001 8.8683V8.86379C21.5837 8.23714 21.1895 8.33982 20.7182 8.74768C20.9684 9.18684 21.143 9.67951 21.1997 10.2288ZM5.08975 16.4776C5.24686 16.241 5.49269 15.9522 5.85925 15.7126C5.55669 15.4625 5.19304 15.1157 4.86283 14.678C4.53409 15.0621 4.45845 15.4952 4.47445 15.8584C4.57482 15.9909 4.79883 16.2648 5.08975 16.4776ZM5.96398 15.8629C5.61633 16.0876 5.3865 16.3571 5.23958 16.5774C5.50432 16.7441 5.65706 16.8185 5.7327 16.8513L5.8098 16.7947C5.81852 16.7367 5.83162 16.6354 5.85053 16.4583C5.87234 16.2514 5.9218 16.0281 5.96253 15.8629H5.96398ZM9.41432 5.15883C9.41432 5.21242 9.41287 5.26601 9.40998 5.3196C9.40122 5.54883 9.37656 5.82272 9.34305 6.11001C9.53796 5.89417 9.75327 5.68578 9.98601 5.49525C9.85948 5.39253 9.71543 5.30025 9.54816 5.21986C9.50309 5.19753 9.45802 5.17818 9.41287 5.15883H9.41432ZM9.25581 6.79324C9.22817 6.99271 9.19909 7.18473 9.17145 7.3574C9.26601 7.24129 9.37511 7.12817 9.48124 7.02695L9.25581 6.79474V6.79324ZM8.84414 4.44732C8.82377 4.23148 8.79468 4.04243 8.76995 3.89507C8.46739 4.08709 8.20265 4.2925 7.97427 4.49048C8.2361 4.43541 8.52848 4.41159 8.84414 4.44582V4.44732ZM18.993 6.96145C19.2869 6.7858 19.8047 6.44493 20.2033 5.99985C20.0898 5.96115 19.9443 5.94478 19.7596 5.96562C19.5647 5.98795 19.364 6.03707 19.1719 6.10108C19.0338 6.2797 18.8825 6.50596 18.7283 6.7858C18.817 6.84237 18.9058 6.90041 18.9945 6.96145H18.993ZM18.6047 6.70988C18.7138 6.51191 18.8229 6.34073 18.9261 6.19188C18.6701 6.29459 18.4388 6.41516 18.2643 6.51191C18.3763 6.57443 18.4898 6.63992 18.6047 6.70988ZM20.6571 10.9061C20.3852 11.0847 20.0767 11.2321 19.7334 11.3288C19.6069 11.7054 19.4178 12.0314 19.1981 12.3142C19.9545 12.0954 20.5364 11.6711 20.6571 10.9061ZM18.0694 11.5089C17.9617 11.5044 17.8599 11.497 17.7639 11.4866C17.8381 11.567 17.9093 11.6563 17.9748 11.7545C18.0098 11.6741 18.0403 11.5923 18.0694 11.5074V11.5089ZM17.5893 11.3184C17.745 11.3422 17.9195 11.36 18.1144 11.3645C18.1756 11.1487 18.2148 10.9225 18.2264 10.6843C18.2759 9.61999 17.7566 8.87723 17.2199 8.40084C17.2897 8.74617 17.3159 9.04986 17.3115 9.31931C17.3551 9.65121 17.3784 10.0055 17.3697 10.3717C17.3638 10.6426 17.3523 10.8957 17.3392 11.1294C17.4221 11.1844 17.5064 11.2469 17.5879 11.3184H17.5893ZM18.6905 11.3482C18.8403 11.3362 18.9989 11.3184 19.1662 11.2931C19.2796 11.0133 19.3509 10.7007 19.3625 10.3523C19.0628 10.7736 18.8156 11.1517 18.6905 11.3497V11.3482ZM19.7858 11.1591C20.1189 11.0549 20.4157 10.9001 20.6775 10.7155C20.6804 10.6604 20.6818 10.6039 20.6804 10.5458C20.6673 10.0263 20.5335 9.56039 20.3182 9.14368C20.1655 9.31038 20.0113 9.49645 19.86 9.68694C19.876 9.78218 19.8891 9.88194 19.8964 9.98169C19.9283 10.4163 19.8833 10.8078 19.7873 11.1591H19.7858ZM17.1922 10.1187C17.086 10.4595 16.9289 10.6962 16.7922 10.851C16.9013 10.8911 17.0307 10.9477 17.166 11.0236C17.1762 10.8183 17.1849 10.5994 17.1908 10.3672C17.1922 10.2839 17.1937 10.202 17.1908 10.1201L17.1922 10.1187ZM16.4154 10.0993C16.4358 10.138 16.4547 10.1782 16.4751 10.2168C16.4897 10.2481 16.5042 10.2779 16.5173 10.3092C16.5857 10.1618 16.6919 9.81649 16.5711 9.24786C16.4053 8.46336 16.0154 9.10345 16.0154 9.10345C16.2176 9.33417 16.3471 9.79562 16.414 10.1008L16.4154 10.0993ZM16.7791 11.2395C16.8475 11.7515 16.798 12.2025 16.7427 12.4914C16.8387 12.4973 16.9362 12.5033 17.0352 12.5062C17.07 12.2368 17.1108 11.8766 17.1413 11.4315C17.0148 11.3482 16.8897 11.2857 16.7791 11.238V11.2395ZM6.70002 8.35175C6.83676 8.19541 6.99968 8.04808 7.19168 7.91411C7.44916 7.73549 7.70662 7.61045 7.95537 7.5256C7.84627 7.54049 7.73281 7.55984 7.61935 7.58366L7.60334 7.61045C7.60334 7.61045 7.59316 7.60449 7.57716 7.59259C7.28042 7.65808 6.97349 7.75931 6.68839 7.91411C6.57783 7.97365 6.47892 8.0332 6.39019 8.08976C6.49492 8.17312 6.6142 8.27137 6.70148 8.35025L6.70002 8.35175ZM6.10072 11.1621C5.87671 11.5983 5.83016 11.9793 5.85198 12.2755C5.93489 11.9853 6.06435 11.6265 6.26509 11.2321C6.44256 10.8837 6.68112 10.6218 6.92112 10.4253C6.61129 10.5503 6.3 10.7721 6.10072 11.1606V11.1621ZM4.3959 13.9397C3.88097 14.5902 4.07589 15.4223 4.07734 15.4268L4.04534 15.4342C4.09043 15.5429 4.13698 15.6501 4.18498 15.7542C4.18498 15.339 4.29844 14.8566 4.68974 14.4354C4.585 14.2806 4.48609 14.1154 4.3959 13.9412V13.9397ZM4.98211 7.12221C4.93411 7.05076 4.84828 6.93466 4.71592 6.78431C4.31007 7.27999 4.05988 7.8516 3.92461 8.45293C4.46718 8.42613 4.91375 8.54825 5.18285 8.64792C5.21049 8.57947 5.24831 8.49909 5.30359 8.40977C5.18285 8.15377 4.98939 7.66255 4.98211 7.12072V7.12221ZM13.8335 3.22672C13.7651 3.17759 13.6953 3.12847 13.6197 3.08232C13.7171 3.10168 13.8103 3.124 13.8989 3.14782L13.832 3.22821L13.8335 3.22672ZM17.3144 11.561C17.2853 11.948 17.2504 12.2681 17.217 12.5152C17.3216 12.5182 17.4264 12.5197 17.5326 12.5182C17.6213 12.399 17.7057 12.2726 17.7828 12.1401C17.6577 11.8944 17.4904 11.7054 17.3144 11.5595V11.561ZM17.1573 14.5396L17.2111 14.4801V14.4771C17.1791 14.2211 17.1181 14.0052 17.0467 13.8265L17.0162 13.837C16.9231 13.9159 16.8315 13.9873 16.7427 14.0544C16.7384 14.1422 16.7427 14.2448 16.7573 14.3595C16.7646 14.413 16.7718 14.4711 16.7791 14.5322C16.9013 14.5366 17.0278 14.5396 17.1558 14.5411L17.1573 14.5396ZM18.4854 14.9117C18.2323 14.9117 17.9893 14.9117 17.7581 14.9117C17.7406 15.1379 17.6926 15.3389 17.6359 15.5101C17.7726 15.5547 17.9152 15.5994 18.065 15.644C18.2279 15.4506 18.3777 15.2094 18.4854 14.9117ZM17.6403 13.8921C17.7202 13.7566 17.793 13.6078 17.8497 13.45C17.7421 13.511 17.6388 13.5646 17.5443 13.6122C17.5791 13.6986 17.6126 13.7923 17.6417 13.8921H17.6403ZM17.3784 16.0504C17.3319 16.1219 17.2999 16.1606 17.2999 16.1606L17.0919 15.9835L17.0148 15.9656L17.1908 16.299C17.2708 16.2648 17.4075 16.1978 17.5646 16.0921L17.3769 16.0504H17.3784ZM6.19964 17.2532L6.236 17.2904C6.43383 17.4526 6.74512 17.3961 6.74512 17.3961C6.74512 17.3961 6.58657 17.2443 6.4731 17.1162C6.35964 16.9897 6.19818 16.6548 6.19818 16.6548C6.19818 16.6548 6.05999 17.0641 6.19818 17.2502L6.19964 17.2532ZM8.92706 19.1853C8.79032 19.16 8.64922 19.1272 8.50521 19.0901C8.42666 19.3104 8.28702 19.5991 8.03973 19.8462C8.12556 19.8819 8.21283 19.9147 8.30157 19.9459C8.5023 19.7078 8.71322 19.4533 8.9285 19.1853H8.92706ZM3.39803 18.5527C3.39367 18.5021 3.43003 18.4574 3.47949 18.4529C3.52894 18.4485 3.57258 18.4857 3.57694 18.5363C3.57694 18.5437 3.77624 20.8167 5.01702 19.9385C4.07152 19.3729 3.68895 18.4663 3.6875 18.4633C3.6555 18.389 3.6875 18.3026 3.76023 18.2683C3.83296 18.2356 3.91733 18.2683 3.95079 18.3428C3.95079 18.3458 4.32608 19.2315 5.25849 19.739C5.40104 19.6065 5.55378 19.4354 5.72106 19.221L5.76906 19.16C5.53342 19.0082 5.29195 18.8265 5.06066 18.6093C4.50063 18.0823 4.13988 17.4437 3.92315 16.9584C3.4213 17.2918 2.8991 17.9096 3.04311 19.0097C3.11584 19.5664 3.32966 19.9861 3.61331 20.2764C3.85769 20.5279 4.15734 20.6828 4.46282 20.7497C4.76828 20.8152 5.07957 20.7929 5.35304 20.6872C5.56397 20.6054 5.75161 20.4729 5.89416 20.2943C5.64106 20.2347 5.41123 20.1469 5.20613 20.0427C3.64386 21.3541 3.39948 18.5616 3.39948 18.5527H3.39803ZM5.97125 18.8995L6.06144 18.7819C5.52614 18.2922 4.93847 17.6566 4.41918 16.8096L4.32317 16.7426C4.28535 16.759 4.24608 16.7768 4.20534 16.7977C4.40608 17.2532 4.74646 17.865 5.28031 18.3666C5.50578 18.5795 5.74143 18.7551 5.97125 18.8995ZM6.24182 18.5482L6.53566 18.1627L6.03962 18.3592C6.10799 18.4247 6.17491 18.4886 6.24036 18.5497L6.24182 18.5482ZM7.17133 17.3186C7.36915 17.0522 7.54952 16.8081 7.71244 16.5848C7.51898 16.4628 7.17714 16.3154 6.92403 16.5639C6.6462 16.8379 6.98222 17.1683 7.17133 17.3186ZM6.20254 18.9054L6.13127 18.9947C6.28836 19.0856 6.43965 19.1629 6.58074 19.227C6.46002 19.1272 6.332 19.0215 6.20254 18.9054ZM9.03471 19.3431C8.8485 19.5753 8.66522 19.7971 8.48921 20.0055C8.66958 20.062 8.85141 20.1082 9.0274 20.1469C9.03182 19.8715 9.03471 19.6021 9.03616 19.3431H9.03471ZM5.55232 8.08381C5.62069 8.00938 5.69924 7.93346 5.79088 7.85755C5.74434 7.52263 5.67887 6.64737 6.09053 5.851C6.01199 5.87184 5.93344 5.89715 5.85489 5.92692C5.09558 6.60122 5.34723 7.58068 5.55232 8.08529V8.08381ZM7.4928 7.04778C7.60771 7.02248 7.72262 7.00313 7.83318 6.98675C7.77063 6.73221 7.74735 6.37496 7.91173 5.96562C7.7459 5.91203 7.57571 5.86588 7.40261 5.83165C7.27024 6.42409 7.3677 6.81111 7.4928 7.04778ZM5.05339 8.91145C4.79737 8.81913 4.37554 8.71045 3.86787 8.74918C3.83005 8.98291 3.80678 9.22106 3.79805 9.45922C3.79078 9.66465 3.79223 9.86858 3.80387 10.0725C4.23007 9.46514 4.74355 9.09602 5.05485 8.90995L5.05339 8.91145ZM1.90122 10.522C1.92014 10.6203 1.94923 10.714 1.98704 10.8004C2.03068 10.9001 2.08596 10.9894 2.14705 11.0654C2.28378 11.2321 2.42779 11.3214 2.54998 11.3437C2.59798 11.3526 2.64017 11.3497 2.67217 11.3362C2.69835 11.3258 2.71872 11.3065 2.73327 11.2797C2.75945 11.2276 2.76527 11.1472 2.73763 11.0386C2.68963 10.8406 2.3827 10.659 2.05687 10.5608C2.0045 10.5444 1.95214 10.5325 1.90122 10.5205V10.522ZM1.72375 10.9225C1.66557 10.79 1.62339 10.6441 1.60448 10.4893C1.5012 10.4893 1.41392 10.5057 1.35283 10.5384C1.3121 10.5623 1.28592 10.5965 1.28301 10.6441C1.27137 10.9031 1.54484 10.9835 1.76449 11.0073C1.74994 10.979 1.73685 10.9508 1.72375 10.9225ZM10.7002 5.43421C10.7555 5.5012 10.8064 5.57116 10.8544 5.64112C11.2428 5.44166 11.7563 5.26749 12.421 5.19903C12.3542 5.10971 12.2814 5.02338 12.2029 4.93704C12.1549 4.94151 12.1069 4.94597 12.0589 4.95342C11.557 5.01445 11.1047 5.19009 10.7002 5.43421ZM10.6755 6.47917C10.6478 6.40176 10.6144 6.32138 10.5751 6.241C10.4239 6.35562 10.3162 6.46428 10.2435 6.54763C10.3598 6.52531 10.5068 6.5 10.6755 6.47917ZM13.4029 5.14097C13.6168 5.13353 13.816 5.13055 14.0008 5.12907C13.787 5.05613 13.5528 4.99658 13.2967 4.95937C13.3346 5.0204 13.3695 5.08143 13.4029 5.14097ZM21.4761 16.6443C21.2521 16.6399 21.0208 16.628 20.7807 16.6086C20.8681 16.753 20.9961 16.9019 21.1488 16.9019C21.3015 16.9019 21.4106 16.7694 21.4761 16.6443ZM3.52313 11.3244C3.50276 11.3943 3.48386 11.4658 3.46785 11.5387L3.55512 11.4822C3.54349 11.4301 3.53331 11.3765 3.52313 11.3229V11.3244ZM2.44671 14.4964C2.39143 14.2836 2.35361 14.0647 2.33324 13.8504C2.31434 13.642 2.31143 13.4351 2.32597 13.2386C2.2387 13.4872 2.2096 13.7566 2.27215 14.0424C2.3056 14.1928 2.36525 14.3446 2.44671 14.4964ZM16.2234 13.7537C16.3005 13.7001 16.3834 13.639 16.4692 13.5735C16.4838 13.5437 16.494 13.511 16.4983 13.4738C16.5333 13.1984 16.2641 13.0986 16.2641 13.0986C16.2641 13.0986 16.2903 13.4916 16.1958 13.6644C16.1638 13.7209 16.1827 13.7492 16.2234 13.7522V13.7537ZM7.36624 15.0889C7.36624 15.0889 7.5597 15.2719 7.72408 15.2586C7.88991 15.2451 7.95827 15.0323 7.95827 15.0323C7.95827 15.0323 7.6688 15.1097 7.36479 15.0889H7.36624ZM14.3194 16.7754C14.3542 16.7828 14.7266 16.9302 15.0714 16.5491C15.4162 16.1665 15.278 15.6723 15.278 15.6723C15.278 15.6723 15.1673 16.0683 14.8299 16.372C14.4924 16.6756 14.3194 16.7754 14.3194 16.7754ZM14.2291 16.0966C14.2291 16.0966 14.443 16.174 14.6699 15.9983C14.8968 15.8212 14.7659 15.525 14.7659 15.525L14.2277 16.0981L14.2291 16.0966ZM15.2983 16.9807C15.2983 16.9807 15.7609 16.9525 15.9398 16.6846C16.1187 16.4166 15.8365 15.9775 15.8365 15.9775C15.8365 15.9775 15.851 16.168 15.7405 16.5223C15.6299 16.8751 15.2983 16.9822 15.2983 16.9822V16.9807ZM15.6082 10.6336C15.6082 10.6336 15.6256 11.0966 15.8627 11.1636C16.0998 11.2306 16.0416 10.9061 16.0416 10.9061C16.0416 10.9061 15.9558 10.9373 15.8205 10.9031C15.6867 10.8674 15.6066 10.6351 15.6066 10.6351L15.6082 10.6336ZM15.4569 9.82834C15.4569 9.82834 15.3667 10.1811 15.5122 10.3375C15.6576 10.4922 15.9572 10.5562 15.9572 10.5562C15.9572 10.5562 15.7157 10.0725 15.4569 9.82834ZM15.6721 8.80277C15.6721 8.80277 15.8103 8.32195 15.6299 8.10316C15.451 7.88434 15.0031 7.96174 15.0031 7.96174L15.6721 8.80277ZM14.5346 8.70452C14.5346 8.70452 14.5826 8.2803 14.1768 7.84267C13.7695 7.40354 13.384 7.81438 13.384 7.81438C13.384 7.81438 13.9222 8.01235 14.1084 8.19541C14.2946 8.37855 14.5361 8.70452 14.5361 8.70452H14.5346ZM6.94294 12.0403C6.97349 11.9138 7.17423 11.6979 7.17423 11.6979C7.17423 11.6979 6.94004 11.6667 6.90222 11.7828C6.8644 11.8989 6.94294 12.0403 6.94294 12.0403ZM6.10508 14.4681C6.10508 14.4681 6.01489 14.617 6.21127 14.7718C6.40764 14.9266 6.88331 14.6453 6.88331 14.6453C6.88331 14.6453 6.73203 14.6586 6.52547 14.6244C6.31892 14.5887 6.10508 14.4696 6.10508 14.4696V14.4681ZM7.24406 13.9843C7.24406 13.9843 7.14805 14.2255 7.15387 14.5292C7.16114 14.8328 7.38806 14.9459 7.38806 14.9459C7.38806 14.9459 7.23823 14.5738 7.2426 13.9843H7.24406ZM9.65148 16.5223C9.65148 16.5223 9.71985 17.0105 10.1751 17.1445C10.2624 17.1698 10.3482 17.1802 10.4296 17.1817H10.4457H10.4501H10.4544H10.4588H10.4631H10.4675H10.4718H10.4762H10.4806H10.4835H10.4879H10.4922H10.4966H10.501H10.5039H10.5082H10.5126H10.517H10.5213H10.5242H10.5257H10.5301H10.5344H10.5387H10.5432H10.5461H10.5504H10.5548H10.5592H10.5635H10.5664H10.5708H10.5751H10.578H10.5825H10.5868H10.5911H10.5955H10.5984H10.6013H10.6042H10.6086H10.6115H10.6159H10.6188H10.6231H10.6261H10.629H10.6319H10.6348H10.6377H10.6421H10.645H10.6478H10.6493H10.6507L10.6581 17.1802H10.6609L10.6638 17.1787H10.6654H10.6683L10.6711 17.1772C10.8835 17.1266 11.0246 17.0269 11.0246 17.0269C11.0246 17.0269 10.9373 17.0269 10.7875 17.0046H10.7846H10.7831H10.7802H10.7774H10.7745H10.7715H10.7686H10.7657H10.7628H10.7598H10.7584H10.7555H10.7526H10.7497H10.7467H10.7439H10.741H10.7381H10.7352H10.7337H10.7308H10.7279H10.725H10.7221H10.7191H10.7162H10.7133H10.7104H10.709H10.7061H10.7031H10.7002H10.6973H10.6944H10.6915H10.6886H10.6857H10.6842H10.6813H10.6785H10.6755H10.6726H10.6697H10.6668H10.6638H10.6609H10.6595H10.6566H10.6537H10.6507H10.6478H10.6435H10.6406H10.6377L10.6348 17.0031H10.6319H10.629L10.6261 17.0016H10.6231H10.6202H10.6173H10.6144H10.6115H10.6086C10.5475 16.9882 10.4806 16.9718 10.4064 16.951C10.0239 16.8453 9.66891 16.5759 9.66891 16.5759L9.65148 16.5223ZM12.4924 17.9543C12.4924 17.9543 12.3687 18.1269 12.5403 18.2341C12.712 18.3398 12.9055 18.2803 12.7571 18.2088C12.6087 18.1374 12.4924 17.9543 12.4924 17.9543ZM12.7687 17.5896C12.7687 17.5896 13.1891 18.1552 13.6037 18.1687C14.0182 18.1835 14.3761 17.1371 14.3761 17.1371C14.3761 17.1371 14.2175 17.3425 13.7972 17.5464C13.3767 17.7519 12.7702 17.5896 12.7702 17.5896H12.7687Z" fill="#629FBC"/>
</g>
</g>
<defs>
<clipPath id="clip0_576_1011">
<rect width="28" height="28" fill="white"/>
</clipPath>
<clipPath id="clip1_576_1011">
<rect width="28" height="29.75" fill="white" transform="translate(-0.369141 -0.689941)"/>
</clipPath>
</defs>
</svg>
