<svg width="28" height="28" viewBox="0 0 28 28" fill="none" xmlns="http://www.w3.org/2000/svg">
<g clip-path="url(#clip0_576_1026)">
<g clip-path="url(#clip1_576_1026)">
<g clip-path="url(#clip2_576_1026)">
<path d="M21.439 1.07715H6.55956C3.53117 1.07715 1.07617 3.53215 1.07617 6.56054V21.4399C1.07617 24.4683 3.53117 26.9233 6.55956 26.9233H21.439C24.4674 26.9233 26.9223 24.4683 26.9223 21.4399V6.56054C26.9223 3.53215 24.4674 1.07715 21.439 1.07715Z" fill="black"/>
<path d="M21.439 1.07715H6.55956C3.53117 1.07715 1.07617 3.53215 1.07617 6.56054V21.4399C1.07617 24.4683 3.53117 26.9233 6.55956 26.9233H21.439C24.4674 26.9233 26.9223 24.4683 26.9223 21.4399V6.56054C26.9223 3.53215 24.4674 1.07715 21.439 1.07715Z" fill="#0B1D38"/>
<path d="M22.2541 8.2625C23.156 8.2625 23.8871 7.5314 23.8871 6.62954C23.8871 5.72768 23.156 4.99658 22.2541 4.99658C21.3522 4.99658 20.6211 5.72768 20.6211 6.62954C20.6211 7.5314 21.3522 8.2625 22.2541 8.2625Z" fill="#F41240"/>
<path d="M17.4002 8.08203H5.92383V20.84H9.1181V16.6894H15.2388L18.0315 20.84H21.6083L18.5287 16.6702C19.4851 16.5172 20.1737 16.1538 20.5946 15.58C21.0153 15.0061 21.2258 14.0881 21.2258 12.8639V11.9075C21.2258 11.1807 21.1492 10.6068 21.0153 10.1669C20.8815 9.72701 20.6519 9.34441 20.3268 9.00013C19.9825 8.67499 19.5999 8.44545 19.1409 8.29244C18.6818 8.15851 18.108 8.08203 17.4002 8.08203ZM16.8838 13.8776H9.1181V10.8938H16.8838C17.3238 10.8938 17.6298 10.9703 17.7829 11.1042C17.9358 11.2381 18.0315 11.4867 18.0315 11.8501V12.9212C18.0315 13.3038 17.9358 13.5525 17.7829 13.6864C17.6298 13.8202 17.3238 13.8776 16.8838 13.8776Z" fill="white"/>
<path d="M21.3204 1.72998H6.66938C3.96759 1.72998 1.77734 3.92022 1.77734 6.62201V21.3385C1.77734 24.0403 3.96759 26.2306 6.66938 26.2306H21.3204C24.0222 26.2306 26.2124 24.0403 26.2124 21.3385V6.62201C26.2124 3.92022 24.0222 1.72998 21.3204 1.72998Z" stroke="black" stroke-opacity="0.65" stroke-width="1.07692"/>
<path d="M21.4388 1.42822H6.55943C3.72527 1.42822 1.42773 3.72576 1.42773 6.55992V21.4393C1.42773 24.2735 3.72527 26.571 6.55943 26.571H21.4388C24.273 26.571 26.5705 24.2735 26.5705 21.4393V6.55992C26.5705 3.72576 24.273 1.42822 21.4388 1.42822Z" stroke="white" stroke-width="1.07692"/>
</g>
</g>
</g>
<defs>
<clipPath id="clip0_576_1026">
<rect width="28" height="28" fill="white"/>
</clipPath>
<clipPath id="clip1_576_1026">
<rect width="28" height="28" fill="white"/>
</clipPath>
<clipPath id="clip2_576_1026">
<rect width="28" height="28" fill="white"/>
</clipPath>
</defs>
</svg>
