<svg width="28" height="28" viewBox="0 0 28 28" fill="none" xmlns="http://www.w3.org/2000/svg">
<g clip-path="url(#clip0_576_1006)">
<g clip-path="url(#clip1_576_1006)">
<g clip-path="url(#clip2_576_1006)">
<path fill-rule="evenodd" clip-rule="evenodd" d="M12.4797 1.8225C15.7108 1.71122 18.958 2.04771 22.092 2.83265C22.5479 2.93863 23.0018 3.06647 23.4243 3.26983C24.8752 3.93884 25.9692 5.30337 26.3046 6.85138C27.0143 10.3508 27.0183 13.9887 26.3147 17.4888C26.0321 18.8506 25.1664 20.0773 23.9794 20.8186C23.415 21.181 22.7736 21.4021 22.1208 21.5499C21.8114 21.6062 21.5778 21.8917 21.5858 22.2024C21.5838 23.5728 21.5872 24.9433 21.5845 26.3138C21.6093 26.5655 21.2571 26.6549 21.0897 26.5145C19.6864 25.3447 18.2858 24.1723 16.8831 23.0012C16.5236 22.676 16.0308 22.505 15.5441 22.5381C11.8805 22.7329 8.18408 22.3553 4.64433 21.3969C2.86943 20.8729 1.44201 19.3561 1.05369 17.563C0.332624 14.0377 0.330616 10.3687 1.05035 6.84343C1.43532 5.01589 2.90893 3.47318 4.724 2.97175C7.25277 2.29413 9.86191 1.9106 12.4797 1.8225Z" fill="#FF0003"/>
<path fill-rule="evenodd" clip-rule="evenodd" d="M8.33674 6.41212C7.99796 6.45717 7.72145 6.76915 7.73484 7.10962C7.73484 7.94423 7.73351 8.77884 7.73551 9.61346C7.73284 9.98043 8.07496 10.3004 8.4432 10.2964C9.20247 10.299 9.96164 10.2977 10.7209 10.2971C10.8776 10.2997 11.0416 10.2798 11.1909 10.3381C11.4721 10.4328 11.6816 10.7144 11.6676 11.0124C11.6676 13.2434 11.6676 15.4743 11.6676 17.7059C11.6475 18.0948 12.0024 18.4524 12.3967 18.4359C13.334 18.4385 14.2721 18.4365 15.2094 18.4365C15.6131 18.4643 15.988 18.1007 15.9605 17.6993C15.9605 15.4683 15.9599 13.238 15.9605 11.0071C15.9425 10.625 16.294 10.2878 16.6763 10.299C17.5018 10.2951 18.3273 10.3004 19.1528 10.2971C19.5271 10.3176 19.8859 10.0063 19.892 9.63134C19.8966 8.78878 19.8939 7.9449 19.8933 7.10233C19.9093 6.71483 19.5391 6.38297 19.1561 6.40483C15.5494 6.41146 11.9428 6.39688 8.33674 6.41212Z" fill="#FEFEFE"/>
</g>
</g>
</g>
<defs>
<clipPath id="clip0_576_1006">
<rect width="28" height="28" fill="white"/>
</clipPath>
<clipPath id="clip1_576_1006">
<rect width="28" height="26.13" fill="white" transform="translate(-0.369141 1.12988)"/>
</clipPath>
<clipPath id="clip2_576_1006">
<rect width="27.9964" height="26.13" fill="white" transform="translate(-0.367188 1.12988)"/>
</clipPath>
</defs>
</svg>
