<svg width="28" height="28" viewBox="0 0 28 28" fill="none" xmlns="http://www.w3.org/2000/svg">
<g clip-path="url(#clip0_576_996)">
<g clip-path="url(#clip1_576_996)">
<g clip-path="url(#clip2_576_996)">
<path d="M13.8264 27.7586C21.3308 27.7586 27.4143 21.675 27.4143 14.1706C27.4143 6.66609 21.3308 0.58252 13.8264 0.58252C6.32185 0.58252 0.238281 6.66609 0.238281 14.1706C0.238281 21.675 6.32185 27.7586 13.8264 27.7586Z" fill="url(#paint0_linear_576_996)"/>
<path fill-rule="evenodd" clip-rule="evenodd" d="M6.38749 14.0273C10.3486 12.3014 12.9901 11.1637 14.3117 10.614C18.0852 9.04445 18.8694 8.77179 19.3804 8.76279C19.4929 8.76081 19.7442 8.78867 19.907 8.92077C20.0445 9.03232 20.0823 9.183 20.1003 9.28875C20.1185 9.39448 20.141 9.63544 20.1231 9.82371C19.9186 11.9723 19.0338 17.1863 18.5836 19.5928C18.3932 20.6111 18.0181 20.9525 17.655 20.9859C16.8659 21.0584 16.2668 20.4644 15.5025 19.9634C14.3066 19.1795 13.631 18.6915 12.4701 17.9264C11.1285 17.0424 11.9982 16.5565 12.7628 15.7624C12.9628 15.5546 16.4395 12.3923 16.5069 12.1054C16.5153 12.0695 16.5231 11.9357 16.4437 11.8652C16.3642 11.7945 16.2469 11.8187 16.1623 11.8379C16.0423 11.8651 14.1318 13.1279 10.4307 15.6262C9.88852 15.9986 9.39733 16.18 8.9572 16.1705C8.47204 16.16 7.53878 15.8962 6.845 15.6706C5.99405 15.3941 5.31774 15.2478 5.37662 14.778C5.4073 14.5333 5.74426 14.2831 6.38749 14.0273Z" fill="white"/>
</g>
</g>
</g>
<defs>
<linearGradient id="paint0_linear_576_996" x1="13.8264" y1="0.58252" x2="13.8264" y2="27.557" gradientUnits="userSpaceOnUse">
<stop stop-color="#2AABEE"/>
<stop offset="1" stop-color="#229ED9"/>
</linearGradient>
<clipPath id="clip0_576_996">
<rect width="28" height="28" fill="white"/>
</clipPath>
<clipPath id="clip1_576_996">
<rect width="28" height="28.95" fill="white" transform="translate(-0.369141 -0.300293)"/>
</clipPath>
<clipPath id="clip2_576_996">
<rect width="27.985" height="28.95" fill="white" transform="translate(-0.361328 -0.300293)"/>
</clipPath>
</defs>
</svg>
