<svg width="28" height="28" viewBox="0 0 28 28" fill="none" xmlns="http://www.w3.org/2000/svg">
<g clip-path="url(#clip0_576_987)">
<g clip-path="url(#clip1_576_987)">
<g clip-path="url(#clip2_576_987)">
<mask id="mask0_576_987" style="mask-type:luminance" maskUnits="userSpaceOnUse" x="0" y="0" width="28" height="28">
<path d="M27.2581 0.58252H0.0820312V27.7586H27.2581V0.58252Z" fill="white"/>
</mask>
<g mask="url(#mask0_576_987)">
<path d="M13.1124 27.7586H14.244C20.3869 27.7586 23.4589 27.7586 25.3667 25.8508C27.2744 23.943 27.2581 20.8722 27.2581 14.7445V13.5966C27.2581 7.47001 27.2581 4.39804 25.3667 2.49029C23.4752 0.582525 20.3869 0.58252 14.244 0.58252H13.1124C6.96846 0.58252 3.89755 0.582525 1.98979 2.49029C0.0820303 4.39804 0.0820313 7.46783 0.0820313 13.5966V14.7445C0.0820313 20.8722 0.0820303 23.943 1.98979 25.8508C3.89755 27.7586 6.96846 27.7586 13.1124 27.7586Z" fill="#2683ED"/>
<path d="M14.6629 20.1765C8.53519 20.1765 4.81645 15.9251 4.67188 8.86035H7.77537C7.87214 14.05 10.2332 16.2523 12.0431 16.7012V8.86035H15.0183V13.3379C16.7641 13.1444 18.5904 11.1073 19.2056 8.86035H22.1308C21.6623 11.6247 19.6741 13.6618 18.2675 14.5021C19.6741 15.1815 21.9374 16.9599 22.8103 20.1765H19.5938C18.9143 18.0262 17.2489 16.3609 15.0183 16.1348V20.1765H14.6629Z" fill="white"/>
</g>
</g>
</g>
</g>
<defs>
<clipPath id="clip0_576_987">
<rect width="28" height="28" fill="white"/>
</clipPath>
<clipPath id="clip1_576_987">
<rect width="28" height="28.95" fill="white" transform="translate(-0.369141 -0.300293)"/>
</clipPath>
<clipPath id="clip2_576_987">
<rect width="27.985" height="28.95" fill="white" transform="translate(-0.361328 -0.300293)"/>
</clipPath>
</defs>
</svg>
