<svg width="28" height="28" viewBox="0 0 28 28" fill="none" xmlns="http://www.w3.org/2000/svg">
<g clip-path="url(#clip0_576_1001)">
<g clip-path="url(#clip1_576_1001)">
<g clip-path="url(#clip2_576_1001)">
<path fill-rule="evenodd" clip-rule="evenodd" d="M27.0027 7.64019C26.6901 6.47114 25.7694 5.55018 24.6001 5.23767C22.4808 4.66992 13.9825 4.66992 13.9825 4.66992C13.9825 4.66992 5.48435 4.66992 3.36503 5.23767C2.19576 5.55018 1.27501 6.47114 0.962498 7.64019C0.394531 9.75973 0.394531 14.1814 0.394531 14.1814C0.394531 14.1814 0.394531 18.6033 0.962498 20.7225C1.27501 21.8916 2.19576 22.8128 3.36503 23.1251C5.48435 23.6931 13.9825 23.6931 13.9825 23.6931C13.9825 23.6931 22.4808 23.6931 24.6001 23.1251C25.7694 22.8128 26.6901 21.8916 27.0027 20.7225C27.5706 18.6033 27.5706 14.1814 27.5706 14.1814C27.5706 14.1814 27.5706 9.75973 27.0027 7.64019Z" fill="#FF0000"/>
<path fill-rule="evenodd" clip-rule="evenodd" d="M11.2656 18.2575L18.3259 14.1812L11.2656 10.1045V18.2575Z" fill="white"/>
</g>
</g>
</g>
<defs>
<clipPath id="clip0_576_1001">
<rect width="28" height="28" fill="white"/>
</clipPath>
<clipPath id="clip1_576_1001">
<rect width="28" height="28.95" fill="white" transform="translate(-0.369141 -0.300293)"/>
</clipPath>
<clipPath id="clip2_576_1001">
<rect width="27.985" height="28.95" fill="white" transform="translate(-0.361328 -0.300293)"/>
</clipPath>
</defs>
</svg>
