<?xml version="1.0" encoding="utf-8"?><svg viewBox="0 0 104 104" xmlns="http://www.w3.org/2000/svg" xmlns:xlink="http://www.w3.org/1999/xlink"><style>:root>svg{display:none}:root>svg:target{display:block}</style><svg viewBox="0 0 20 20" id="icon-adress" xmlns="http://www.w3.org/2000/svg"><path d="m4.377 8.313 9.717-4.627c1.416-.675 2.895.804 2.22 2.222l-4.626 9.715c-.633 1.328-2.55 1.246-3.066-.131l-.855-2.283a1.667 1.667 0 0 0-.975-.975L4.51 11.38c-1.377-.517-1.46-2.434-.132-3.066Z"/></svg><svg viewBox="0 0 25 24" id="icon-ai" xmlns="http://www.w3.org/2000/svg"><path fill-rule="evenodd" clip-rule="evenodd" d="M8.229 1.486a.986.986 0 0 0-1.972 0v1.643H5.93a2.3 2.3 0 0 0-2.3 2.3v.328H1.986a.986.986 0 0 0 0 1.972h1.643v3.285H1.986a.986.986 0 1 0 0 1.972h1.643v3.285H1.986a.986.986 0 0 0 0 1.972h1.643v.328a2.3 2.3 0 0 0 2.3 2.3h.328v1.643a.986.986 0 0 0 1.972 0v-1.643h3.285v1.643a.986.986 0 1 0 1.972 0v-1.643h3.285v1.643a.986.986 0 0 0 1.972 0v-1.643h.328a2.3 2.3 0 0 0 2.3-2.3v-.328h1.643a.986.986 0 0 0 0-1.972h-1.643v-3.285h1.643a.986.986 0 1 0 0-1.972h-1.643V7.73h1.643a.986.986 0 0 0 0-1.972h-1.643V5.43a2.3 2.3 0 0 0-2.3-2.3h-.328V1.486a.986.986 0 0 0-1.972 0v1.643h-3.285V1.486a.986.986 0 1 0-1.972 0v1.643H8.23V1.486ZM5.6 5.429a.329.329 0 0 1 .329-.329H19.07a.329.329 0 0 1 .329.329V18.57a.329.329 0 0 1-.329.329H5.93a.329.329 0 0 1-.329-.329V5.43Zm6.636 10.19-.362-1.015H9.21l-.361 1.014a.986.986 0 1 1-1.857-.662l2.234-6.27.004-.011.005-.013c.2-.515.678-.935 1.307-.935.63 0 1.106.42 1.307.936l.004.012.006.013 2.234 6.27a.985.985 0 0 1-1.857.66Zm-1.694-4.752.63 1.765h-1.26l.63-1.765Zm4.915-2.155a.986.986 0 0 1 1.972 0v6.575a.986.986 0 1 1-1.972 0V8.712Z"/></svg><svg viewBox="0 0 13 13" id="icon-arrow" xmlns="http://www.w3.org/2000/svg"><g clip-path="url(#fa)"><path d="M12.92.987a1 1 0 0 0-.54-.54 1 1 0 0 0-.38-.08H2a1 1 0 0 0 0 2h7.59l-8.3 8.29a1 1 0 0 0 .325 1.64 1.001 1.001 0 0 0 1.095-.22l8.29-8.3v7.59a1 1 0 0 0 2 0v-10a.997.997 0 0 0-.08-.38Z"/></g><defs><clipPath id="fa"><path d="M0 0h13v13H0z"/></clipPath></defs></svg><svg viewBox="0 0 14 8" id="icon-arrow-down" xmlns="http://www.w3.org/2000/svg"><path d="M13 1 7 7 1 1"/></svg><svg viewBox="0 0 16 15" id="icon-arrow-right" xmlns="http://www.w3.org/2000/svg"><path d="m9 13.5 6-6m0 0-6-6m6 6H1"/></svg><svg viewBox="0 0 31 20" id="icon-arrow-slider" xmlns="http://www.w3.org/2000/svg"><path d="m21.137 2 8.07 8.07-8.07 8.069M29 10H1"/></svg><svg viewBox="0 0 13 10" id="icon-checkbox" xmlns="http://www.w3.org/2000/svg"><path d="M11.332 1.667 4.665 8.333 1.332 5"/></svg><svg viewBox="0 0 48 49" id="icon-effect" xmlns="http://www.w3.org/2000/svg"><path fill-rule="evenodd" clip-rule="evenodd" d="M29.084 29.81a4.13 4.13 0 0 1-3.08 3.491l-.957.244a9.702 9.702 0 0 0 .02 2.1l.725.172a4.143 4.143 0 0 1 2.631 1.954 4.13 4.13 0 0 1 .382 3.253l-.262.874a8.95 8.95 0 0 0 1.728 1.069l.672-.711a4.14 4.14 0 0 1 6.023.004l.697.74a8.825 8.825 0 0 0 1.701-1.03l-.323-1.149a4.13 4.13 0 0 1 1.484-4.41c.44-.334.941-.575 1.476-.712l.952-.244c.069-.7.062-1.404-.02-2.102l-.721-.17a4.14 4.14 0 0 1-3.16-3.543 5.47 5.47 0 0 1 .147-1.666l.26-.87a8.906 8.906 0 0 0-1.728-1.073l-.672.711a4.138 4.138 0 0 1-4.651.958 4.137 4.137 0 0 1-1.372-.96L30.34 26a8.895 8.895 0 0 0-1.701 1.027l.325 1.152c.12.628.142.984.121 1.632Zm3.453 6.152a2.07 2.07 0 0 0 3.532-1.462A2.066 2.066 0 0 0 34 32.433a2.07 2.07 0 0 0-2.07 2.067c0 .548.218 1.074.607 1.462Z"/><path fill-rule="evenodd" clip-rule="evenodd" d="M5 14a6 6 0 0 1 6-6h22a6 6 0 0 1 6 6v7.92a13.967 13.967 0 0 0-6-.885V16a2 2 0 1 0-4 0v5.92a14.015 14.015 0 0 0-5 3.282V22a2 2 0 1 0-4 0v11c0 .188.026.37.075.544-.05.479-.075.964-.075 1.456 0 2.55.682 4.94 1.873 7H11a6 6 0 0 1-6-6V14Zm8 4a2 2 0 0 0-2 2v13a2 2 0 1 0 4 0V20a2 2 0 0 0-2-2Z"/></svg><svg viewBox="0 0 20 20" id="icon-mail" xmlns="http://www.w3.org/2000/svg"><path d="M3 6.18v8.32c0 .828.627 1.5 1.4 1.5h11.2c.773 0 1.4-.672 1.4-1.5V6.18m-14 0V5.5C3 4.672 3.627 4 4.4 4h11.2c.773 0 1.4.672 1.4 1.5v.68m-14 0 7 4.72 7-4.72"/></svg><svg viewBox="0 0 20 20" id="icon-phone" xmlns="http://www.w3.org/2000/svg"><rect x="7.875" y="14.875" width="4.25" height=".75" rx=".375"/><rect x="4.5" y="2" width="11" height="16" rx="2.25"/></svg><svg viewBox="0 0 104 104" id="icon-questions" xmlns="http://www.w3.org/2000/svg"><path d="M32.5 86.667h49.834l13 13v-45.5c0-4.767-3.9-8.667-8.667-8.667H32.501c-4.767 0-8.667 3.9-8.667 8.667V78c0 4.767 3.9 8.667 8.667 8.667Z"/><path d="M62.4 71.067h-7.8l-1.517 4.55h-4.767l8.017-21.667h4.117l8.016 21.667H63.7l-1.3-4.55ZM55.683 67.6H61.1l-2.6-8.233-2.817 8.233Z"/><path d="M71.5 54.167H21.665l-13 13V17.333c0-4.766 3.9-8.666 8.667-8.666h54.166c4.767 0 8.667 3.9 8.667 8.666V45.5c0 4.767-3.9 8.667-8.667 8.667Z"/><path d="M55.033 30.767c0 2.166-.433 3.9-1.083 5.417-.65 1.516-1.517 2.816-2.817 3.683l3.684 2.817-2.817 2.6-4.767-3.684c-.433 0-1.083.217-1.733.217-1.3 0-2.6-.217-3.9-.65-1.083-.434-2.166-1.3-3.033-2.167-.867-.867-1.517-2.167-1.95-3.467-.433-1.3-.65-2.816-.65-4.55v-.866c0-1.734.217-3.25.65-4.55.433-1.3 1.083-2.6 1.95-3.467s1.733-1.733 3.033-2.167c1.084-.433 2.383-.65 3.9-.65 1.3 0 2.6.217 3.9.65 1.084.434 2.167 1.3 3.034 2.167.866.867 1.516 2.167 1.95 3.467.433 1.3.65 2.816.65 4.55v.65Zm-4.766-1.084c0-2.383-.434-4.116-1.3-5.2-.867-1.3-1.95-1.733-3.467-1.733-1.517 0-2.816.65-3.467 1.733-.866 1.3-1.3 3.034-1.3 5.2v1.084c0 1.083.217 2.166.434 3.033.216.867.433 1.733.866 2.167.434.65.867 1.083 1.517 1.3.65.216 1.3.433 1.95.433 1.517 0 2.817-.65 3.467-1.733.867-1.3 1.3-3.034 1.3-5.417v-.867Z"/></svg><svg viewBox="0 0 25 24" id="icon-robot" xmlns="http://www.w3.org/2000/svg"><g clip-path="url(#la)"><path d="M14 2c0 .444-.193.843-.5 1.118V5h5a3 3 0 0 1 3 3v10a3 3 0 0 1-3 3h-12a3 3 0 0 1-3-3V8a3 3 0 0 1 3-3h5V3.118A1.5 1.5 0 1 1 14 2ZM6.5 7a1 1 0 0 0-1 1v10a1 1 0 0 0 1 1h12a1 1 0 0 0 1-1V8a1 1 0 0 0-1-1h-12Zm-4 3h-2v6h2v-6Zm20 0h2v6h-2v-6Zm-13 4.5a1.5 1.5 0 1 0 0-3 1.5 1.5 0 0 0 0 3Zm6 0a1.5 1.5 0 1 0 0-3 1.5 1.5 0 0 0 0 3Z"/></g><defs><clipPath id="la"><path transform="translate(.5)" d="M0 0h24v24H0z"/></clipPath></defs></svg><svg viewBox="0 0 48 48" id="icon-save" xmlns="http://www.w3.org/2000/svg"><g clip-path="url(#ma)"><path d="M13 36v-.18c0-1.73 0-3.318.174-4.608.19-1.422.64-2.926 1.876-4.16 1.236-1.238 2.74-1.688 4.16-1.88C20.502 25 22.09 25 23.822 25h.356c1.732 0 3.32 0 4.61.174 1.422.19 2.926.64 4.16 1.876 1.238 1.236 1.688 2.74 1.88 4.16.17 1.274.172 2.832.172 4.534 5.146-1.1 9-5.624 9-11.04 0-4.94-3.214-9.144-7.69-10.674C35.674 8.388 30.83 4 24.952 4 18.64 4 13.524 9.056 13.524 15.294c0 1.38.25 2.7.708 3.924a8.709 8.709 0 0 0-1.66-.16C7.838 19.06 4 22.852 4 27.53 4 32.208 7.838 36 12.572 36H13Z"/><path fill-rule="evenodd" clip-rule="evenodd" d="M24 44c-3.772 0-5.656 0-6.828-1.172C16 41.656 16 39.772 16 36c0-3.772 0-5.656 1.172-6.828C18.344 28 20.228 28 24 28c3.772 0 5.656 0 6.828 1.172C32 30.344 32 32.228 32 36c0 3.772 0 5.656-1.172 6.828C29.656 44 27.772 44 24 44Zm4.5-9.724a1.334 1.334 0 1 0-1.888-1.886l-4.39 4.39-.834-.834a1.334 1.334 0 0 0-1.886 1.886l1.778 1.778c.52.52 1.364.52 1.884 0l5.336-5.334Z"/></g><defs><clipPath id="ma"><path d="M0 0h48v48H0z"/></clipPath></defs></svg><svg viewBox="0 0 48 48" id="icon-shield" xmlns="http://www.w3.org/2000/svg"><path d="M5 23.734C5 12.449 9.75 7.612 11.333 6h25.334C38.25 7.612 43 12.449 43 23.734 43 36.63 30.524 41.388 24.191 43 17.858 41.388 5 36.63 5 23.734Z"/><path d="M24 42.95c.064.018.128.034.191.05C30.524 41.388 43 36.63 43 23.734 43 12.449 38.25 7.612 36.667 6H24v36.95Z"/></svg><svg viewBox="0 0 48 48" id="icon-snippets" xmlns="http://www.w3.org/2000/svg"><rect x="7" y="6" width="15" height="12" rx="2"/><rect x="26" y="30" width="15" height="12" rx="2"/><rect x="26" y="6" width="15" height="20" rx="2"/><rect x="7" y="22" width="15" height="20" rx="2"/></svg><svg viewBox="0 0 48 48" id="icon-trigger" xmlns="http://www.w3.org/2000/svg"><path d="M40.5 27.75v6.75a19.97 19.97 0 0 1-.677 5.173C39.428 41.135 38.043 42 36.527 42H15.791a4 4 0 0 1-3.45-1.977L8 32.625a3.75 3.75 0 0 1 6.496-3.75l3.502 2.625V14.25a3.75 3.75 0 0 1 7.5 0v10.5a3.75 3.75 0 0 1 7.5 0v3a3.75 3.75 0 0 1 7.5 0Z"/><path d="M32.25 14.625a10.5 10.5 0 1 0-21 0"/></svg><svg viewBox="0 0 48 48" id="icon-window-comp" xmlns="http://www.w3.org/2000/svg"><path fill-rule="evenodd" clip-rule="evenodd" d="M44 24.252A11.946 11.946 0 0 0 37 22c-6.627 0-12 5.373-12 12 0 2.186.584 4.235 1.605 6H7a3 3 0 0 1-3-3V11a3 3 0 0 1 3-3h34a3 3 0 0 1 3 3v13.252Z"/><path d="M4 11a3 3 0 0 1 3-3h34a3 3 0 0 1 3 3v9H4v-9Z"/><path d="M8 14a2 2 0 1 1 4 0 2 2 0 0 1-4 0Zm6 0a2 2 0 1 1 4 0 2 2 0 0 1-4 0Z"/><path fill-rule="evenodd" clip-rule="evenodd" d="M37 42a8 8 0 1 0 0-16 8 8 0 0 0 0 16Zm4.094-8.974a1.5 1.5 0 1 0-2.188-2.052l-2.802 2.988-1.167-.933a1.5 1.5 0 1 0-1.874 2.342l2.25 1.8a1.5 1.5 0 0 0 2.031-.145l3.75-4Z"/></svg></svg>